<svg version="1.1" xmlns="http://www.w3.org/2000/svg" style="display: none">
    <defs>

        <symbol width="23" height="24" viewBox="0 0 23 24" fill="none" id="icon-dude">
            <path id="dude" opacity="0.75" fill-rule="evenodd" clip-rule="evenodd" d="M16.6155 6.46154C16.6155 10.7692 14.1358 12.9231 11.077 12.9231C8.01823 12.9231 5.53857 10.7692 5.53857 6.46154C5.53857 2.15385 8.01823 0 11.077 0C14.1358 0 16.6155 2.15385 16.6155 6.46154ZM0 22.3384C0 19.5692 1.10769 14.7692 11.0769 14.7692C21.0462 14.7692 22.1538 19.7538 22.1538 22.3384C22.1538 23.6307 21.7108 24 19.0523 24H3.32308C0.664615 24 0 23.6307 0 22.3384Z" fill="white"/>
        </symbol>

        <symbol width="31" height="26" viewBox="0 0 31 26" fill="none" id="icon-main-page">
            <path opacity="0.75" fill-rule="evenodd" clip-rule="evenodd" d="M16.7391 0.629126C15.9974 -0.10424 14.8849 -0.10424 14.3287 0.629126L1.16408 13.463C0.42241 14.1964 0.793244 14.7464 1.72033 14.7464L4.46184 14.8512V24.0838C4.46184 25.9303 4.46184 25.9303 6.30799 25.9303H11.3465C11.6226 25.9303 11.8465 25.7064 11.8465 25.4303V16.8512C11.8465 15.7466 12.7419 14.8512 13.8465 14.8512H17.2311C18.3356 14.8512 19.2311 15.7466 19.2311 16.8512V25.4303C19.2311 25.7064 19.4549 25.9303 19.7311 25.9303H24.7695C26.6157 25.9303 26.6157 25.9303 26.6157 24.0838V14.8512L29.5329 14.7464C30.2746 14.5631 30.6454 14.0131 29.9037 13.463L16.7391 0.629126Z" fill="white"/>
        </symbol>

        <symbol width="31" height="23" viewBox="0 0 31 23" fill="none" id="icon-messages">
            <path opacity="0.75" fill-rule="evenodd" clip-rule="evenodd" d="M19.2311 20.4884C18.6425 20.4884 18.0647 20.4501 17.501 20.3764C22.2903 18.5333 25.6926 14.4036 25.6926 9.40932C25.6926 6.8841 24.8228 4.57989 23.3437 2.68054C27.425 4.04155 30.308 7.36806 30.308 11.2558C30.308 14.536 28.2557 17.4166 25.163 19.0543C25.0295 19.7768 25.621 21.0584 26.6157 22.3349C23.5723 22.3349 22.1101 21.5541 21.3744 20.3157C20.681 20.429 19.9643 20.4884 19.2311 20.4884ZM22.9234 9.40932C22.9234 14.5083 17.9641 18.6419 11.8465 18.6419C11.1131 18.6419 10.3964 18.5825 9.70289 18.4691C8.96619 19.7076 7.50061 20.4884 4.46184 20.4884C5.45649 19.2118 6.04806 17.9303 5.91456 17.2078C2.82183 15.5701 0.769531 12.6895 0.769531 9.40932C0.769531 4.31031 5.72884 0.176758 11.8465 0.176758C17.9641 0.176758 22.9234 4.31031 22.9234 9.40932Z" fill="white"/>
        </symbol>

        <symbol width="31" height="21" viewBox="0 0 31 21" fill="none" id="icon-friends">
            <path opacity="0.75" fill-rule="evenodd" clip-rule="evenodd" d="M10.0003 9.81398C12.0395 9.81398 13.6926 8.27522 13.6926 5.1977C13.6926 2.12018 12.0395 0.581421 10.0003 0.581421C7.9611 0.581421 6.30799 2.12018 6.30799 5.1977C6.30799 8.27522 7.9611 9.81398 10.0003 9.81398ZM18.5526 11.8319C21.927 14.1715 22.7528 18.0676 22.8974 20.893H27.7234C29.9388 20.893 30.308 20.5237 30.308 19.2312C30.308 16.6461 29.3849 11.6605 21.0772 11.6605C20.1459 11.6605 19.3074 11.7208 18.5526 11.8319ZM0.769531 19.2312C0.769531 16.4614 1.69261 11.6605 10.0003 11.6605C18.308 11.6605 19.2311 16.6461 19.2311 19.2312C19.2311 20.5237 18.8618 20.893 16.6465 20.893H3.53876C1.32338 20.893 0.769531 20.5237 0.769531 19.2312ZM24.7695 5.1977C24.7695 8.27522 23.1164 9.81398 21.0772 9.81398C19.038 9.81398 17.3849 8.27522 17.3849 5.1977C17.3849 2.12018 19.038 0.581421 21.0772 0.581421C23.1164 0.581421 24.7695 2.12018 24.7695 5.1977Z" fill="white"/>
        </symbol>

        <symbol width="24" height="24" viewBox="0 0 24 24" fill="none" id="icon-send">
            <path d="M4.7802 15.8556C4.0802 17.7556 3.6802 19.0556 3.4802 19.7556C2.8802 22.1556 2.4802 22.6556 4.5802 21.5556C6.6802 20.4556 16.5802 14.8556 18.8802 13.6556C21.7802 12.0556 21.7802 12.1556 18.6802 10.4556C16.3802 9.05555 6.4802 3.65556 4.6802 2.55556C2.8802 1.45556 2.9802 1.95556 3.4802 4.35556C3.6802 5.15556 4.0802 6.45555 4.7802 8.25556C5.2802 9.55556 6.3802 10.5556 7.7802 10.7556L13.5802 11.8556C13.6802 11.8556 13.6802 11.9556 13.6802 11.9556C13.6802 11.9556 13.6802 12.0556 13.5802 12.0556L7.7802 13.1556C6.4802 13.5556 5.2802 14.4556 4.7802 15.8556Z" fill="#828A99"/>
        </symbol>


    </defs>
</svg>
