<svg width="79" height="235" viewBox="0 0 79 235" fill="none" xmlns="http://www.w3.org/2000/svg">
<path d="M75.8001 3.19806C50.1847 3.91647 54.9047 2.94458 34.1804 22.898C29.4472 27.4551 22.2904 32.9978 20.6686 41.0942C18.2751 53.042 32.9259 89.1888 42.5178 75.8854C48.7167 67.2878 47.5227 52.5204 38.0927 48.6148C22.6283 42.2098 10.1948 61.1468 5.38722 77.5103C0.09438 95.5256 4.53945 115.234 17.0136 127.263C22.7122 132.758 31.9043 130.27 26.8622 118.599C16.4915 94.596 4.49699 123.714 6.12094 139.661C9.04597 168.385 33.7171 206.119 56.7994 200.135C64.0162 198.264 61.6573 194.09 58.6288 191.002C55.5556 187.869 47.8283 176.427 49.9029 180.772C53.5298 188.367 58.1311 191.423 63.2712 195.883C69.9009 201.635 55.6804 214.205 51.5608 218.692C49.3982 221.047 46.2559 226.322 45.6709 230.164C44.5158 237.748 52.8541 217.931 54.3464 210.482" stroke="#00ADB5" stroke-opacity="0.2" stroke-width="5" stroke-linecap="round" stroke-linejoin="round"/>
</svg>
