<svg width="514" height="514" viewBox="0 0 514 514" fill="none" xmlns="http://www.w3.org/2000/svg">
<path d="M149.686 414.09C148.377 414.284 146.837 414.386 146.525 415.945C146.284 417.153 146.375 418.396 147.099 419.444C148.336 421.234 150.174 422.279 152.388 421.91C154.367 421.58 157.086 419.787 157.086 417.559C157.086 416.303 156.181 415.039 155.433 414.099C154.63 413.092 153.937 412.032 152.927 411.208C151.565 410.097 150.465 409.988 149.24 411.298C148.57 412.015 147.936 412.993 147.643 413.932C147.498 414.395 147.604 414.766 147.604 415.23C147.604 415.848 147.49 414.936 147.604 414.63" stroke="#00ADB5" stroke-opacity="0.5" stroke-linecap="round" stroke-linejoin="round"/>
<path d="M156.469 417.63C157.583 418.619 158.527 419.513 160.496 419.561C161.875 419.595 163.253 419.251 164.546 418.88C165.471 418.615 168.437 417.21 166.034 417.097" stroke="#00ADB5" stroke-opacity="0.5" stroke-linecap="round" stroke-linejoin="round"/>
<path d="M167.955 409.003C166.485 410.626 164.457 413.807 165.219 416.245C165.486 417.102 165.876 417.679 166.379 418.412C167.392 419.886 168.963 419.426 170.388 419.041C171.42 418.762 172.647 417.883 173.043 416.883C173.588 415.503 172.451 413.345 171.501 412.395C170.44 411.334 169.6 410.043 168.418 409.114C168.103 408.867 167.864 408.599 167.454 408.69C166.993 408.793 166.803 409.234 167.415 409.234" stroke="#00ADB5" stroke-opacity="0.5" stroke-linecap="round" stroke-linejoin="round"/>
<path d="M271.866 186.582C270.557 186.776 269.017 186.878 268.706 188.437C268.464 189.645 268.556 190.888 269.28 191.936C270.517 193.726 272.355 194.771 274.568 194.402C276.548 194.072 279.266 192.279 279.266 190.051C279.266 188.795 278.362 187.531 277.613 186.591C276.811 185.583 276.118 184.524 275.108 183.7C273.746 182.589 272.646 182.48 271.421 183.79C270.751 184.507 270.117 185.485 269.823 186.424C269.679 186.887 269.785 187.258 269.785 187.722C269.785 188.34 269.67 187.428 269.785 187.122" stroke="#00ADB5" stroke-opacity="0.5" stroke-linecap="round" stroke-linejoin="round"/>
<path d="M278.649 190.122C279.763 191.11 280.707 192.005 282.677 192.053C284.056 192.087 285.434 191.743 286.726 191.372C287.651 191.107 290.618 189.702 288.214 189.589" stroke="#00ADB5" stroke-opacity="0.5" stroke-linecap="round" stroke-linejoin="round"/>
<path d="M290.136 181.495C288.666 183.118 286.637 186.298 287.399 188.737C287.667 189.594 288.056 190.171 288.56 190.903C289.573 192.377 291.144 191.918 292.568 191.533C293.601 191.254 294.828 190.375 295.223 189.375C295.769 187.994 294.632 185.837 293.682 184.887C292.621 183.826 291.78 182.535 290.598 181.606C290.284 181.359 290.045 181.091 289.635 181.182C289.174 181.285 288.984 181.726 289.596 181.726" stroke="#00ADB5" stroke-opacity="0.5" stroke-linecap="round" stroke-linejoin="round"/>
<path d="M159.125 139.395C166.671 135.8 172.772 129.855 178.906 124.249C183.728 119.843 188.784 115.49 194.105 111.688C195.154 110.937 196.638 109.428 198.057 110.071C199.463 110.709 200.274 112.445 201.386 113.473C204.123 116.005 206.585 119.099 208.835 122.074C211.313 125.349 207.597 127.162 205.301 129.306C202.692 131.742 200.2 134.254 197.35 136.403C194.642 138.446 192.465 141.262 189.986 143.575C186.207 147.1 182.672 150.853 178.904 154.381C176.66 156.481 174.087 158.196 171.927 160.371C171.17 161.133 170.47 162.141 169.597 162.775C168.896 163.285 167.925 161.325 167.676 160.956C165.695 158.026 162.626 156.022 160.686 152.957C159.467 151.03 158.646 148.652 157.186 146.892C156.489 146.052 154.747 144.161 155.51 142.934C156.29 141.681 158.503 141.081 159.71 140.184C160.651 139.484 161.795 138.621 162.866 138.134C163.644 137.781 164.408 137.154 165.104 136.672C166.936 135.402 164.995 135.945 163.756 136.417" stroke="#00ADB5" stroke-opacity="0.5" stroke-linecap="round" stroke-linejoin="round"/>
<path d="M160.277 145.148C164.871 147.992 168.993 152.108 172.579 156.167C172.67 156.27 173.543 156.878 173.41 157.103C173.153 157.538 170.171 155.575 169.886 155.379" stroke="#00ADB5" stroke-opacity="0.5" stroke-linecap="round" stroke-linejoin="round"/>
<path d="M164.832 141.036C168.557 142.103 170.776 144.132 173.784 146.303C175.123 147.27 176.488 148.143 177.69 149.281C178.255 149.815 178.657 150.518 179.178 151.094C179.893 151.883 176.974 150.178 176.63 149.981" stroke="#00ADB5" stroke-opacity="0.5" stroke-linecap="round" stroke-linejoin="round"/>
<path d="M170.244 137.849C172.851 140.201 175.471 142.521 178.159 144.779C179.18 145.636 180.34 146.423 181.222 147.434C182.787 149.227 180.737 146.9 180.04 146.243" stroke="#00ADB5" stroke-opacity="0.5" stroke-linecap="round" stroke-linejoin="round"/>
<path d="M173.896 135.606C175.83 136.781 177.849 137.92 179.486 139.505C180.158 140.156 180.715 140.922 181.433 141.524C182.317 142.266 183.092 143.132 183.982 143.853C185.25 144.88 185.441 145.18 183.935 143.891" stroke="#00ADB5" stroke-opacity="0.5" stroke-linecap="round" stroke-linejoin="round"/>
<path d="M178.604 132.154C180.737 133.824 182.712 135.519 184.495 137.555C185.285 138.457 185.922 139.498 186.924 140.19C187.843 140.824 188.486 141.007 187.411 139.977" stroke="#00ADB5" stroke-opacity="0.5" stroke-linecap="round" stroke-linejoin="round"/>
<path d="M183.137 128.637C185.015 130.048 186.866 131.336 188.367 133.154C189.053 133.986 189.595 134.942 190.362 135.709C191.92 137.268 190.849 136.482 189.722 135.424" stroke="#00ADB5" stroke-opacity="0.5" stroke-linecap="round" stroke-linejoin="round"/>
<path d="M187.317 124.987C189.954 127.509 192.162 130.463 194.804 132.955C196.582 134.632 194.034 131.944 193.617 131.466" stroke="#00ADB5" stroke-opacity="0.5" stroke-linecap="round" stroke-linejoin="round"/>
<path d="M192.421 122.085C194.64 121.179 196.942 120.099 198.135 117.885C198.464 117.274 198.887 116.742 199.023 116.054C199.208 115.109 199.172 115.515 198.471 116.126" stroke="#00ADB5" stroke-opacity="0.5" stroke-linecap="round" stroke-linejoin="round"/>
<path d="M195.994 125.133C197.753 123.5 199.72 121.716 201.009 119.644C201.652 118.61 202.877 117.348 201.165 118.844" stroke="#00ADB5" stroke-opacity="0.5" stroke-linecap="round" stroke-linejoin="round"/>
<path d="M201.635 128.555C203.238 126.813 204.665 125.192 206.14 123.371C206.617 122.782 208.07 122.018 206.322 122.485" stroke="#00ADB5" stroke-opacity="0.5" stroke-linecap="round" stroke-linejoin="round"/>
<path d="M200.359 127.675C202.037 126.237 203.935 124.562 205.265 122.747C205.62 122.262 205.892 121.723 206.217 121.22C206.761 120.377 206.796 120.661 205.971 120.748" stroke="#00ADB5" stroke-opacity="0.5" stroke-linecap="round" stroke-linejoin="round"/>
<path d="M164.808 148.053C173.168 144.657 175.23 135.44 182.043 130.228C182.872 129.594 183.545 128.889 184.511 128.45C185.158 128.157 185.956 128.016 186.544 127.641C186.903 127.412 189.882 125.135 187.812 126.076" stroke="#00ADB5" stroke-opacity="0.5" stroke-linecap="round" stroke-linejoin="round"/>
<path d="M160.915 145.588C161.854 144.447 162.686 143.471 163.877 142.646C164.072 142.51 164.373 142.488 164.534 142.307C164.852 141.949 165.333 141.425 165.456 140.964C165.939 139.145 168.297 139.481 169.55 138.569C170.741 137.702 171.888 136.823 173.103 135.966C174.441 135.022 175.06 134.194 176.135 132.984C177.122 131.872 178.081 130.748 179.126 129.696C179.981 128.835 181.324 128.052 181.868 126.95C182.482 125.707 184.052 124.284 185.465 124.514C185.95 124.594 189.515 126.66 187.185 125.339" stroke="#00ADB5" stroke-opacity="0.5" stroke-linecap="round" stroke-linejoin="round"/>
<path d="M168.48 150.033C174.762 146.72 178.249 139.495 182.492 134.037C184.055 132.027 186.288 130.691 187.924 128.716C188.624 127.871 190.169 126.974 188.372 126.989" stroke="#00ADB5" stroke-opacity="0.5" stroke-linecap="round" stroke-linejoin="round"/>
<path d="M170.723 152.08C176.415 148.58 180.06 142.069 184.202 136.91C186.086 134.562 187.904 132.166 189.812 129.837C190.681 128.776 192.198 128.113 190.252 129.2" stroke="#00ADB5" stroke-opacity="0.5" stroke-linecap="round" stroke-linejoin="round"/>
<path d="M172.965 155.732C176.517 152.268 179.385 148.53 182.292 144.523C184.059 142.087 185.586 139.348 187.662 137.155C188.852 135.896 189.769 134.422 190.85 133.088C191.285 132.55 191.586 131.924 192.033 131.391C193.041 130.19 192.339 131.276 191.637 131.928" stroke="#00ADB5" stroke-opacity="0.5" stroke-linecap="round" stroke-linejoin="round"/>
<path d="M173.801 157.25C175.569 155.518 178.159 153.852 179.338 151.605C179.766 150.79 180.826 148.821 181.569 148.322C182.551 147.662 183.019 146.259 183.734 145.377C184.478 144.458 185.207 143.561 186.015 142.687C186.772 141.867 187.015 140.428 187.953 139.723C188.997 138.937 189.506 137.72 190.339 136.782C191.06 135.97 192.433 135.129 193.328 134.508C193.824 134.165 194.17 133.696 194.732 133.441C195.872 132.923 195.132 133.188 194.089 133.149" stroke="#00ADB5" stroke-opacity="0.5" stroke-linecap="round" stroke-linejoin="round"/>
<path d="M192.277 122.734C193.74 123.119 195.543 123.384 196.875 124.181C197.735 124.695 198.484 125.211 196.918 124.275" stroke="#00ADB5" stroke-opacity="0.5" stroke-linecap="round" stroke-linejoin="round"/>
<path d="M193.796 120.293C195.882 120.838 197.356 121.449 199.057 122.558C200.169 123.283 199.991 123.082 198.832 122.384" stroke="#00ADB5" stroke-opacity="0.5" stroke-linecap="round" stroke-linejoin="round"/>
<path d="M196.326 117.83C198.117 118.837 199.855 119.982 201.707 120.859C202.797 121.375 202.225 121.339 201.384 120.933" stroke="#00ADB5" stroke-opacity="0.5" stroke-linecap="round" stroke-linejoin="round"/>
<path d="M197.768 115.862C199.651 116.719 201.387 117.574 203.121 118.652C203.912 119.144 203.194 119.176 202.595 118.778" stroke="#00ADB5" stroke-opacity="0.5" stroke-linecap="round" stroke-linejoin="round"/>
<path d="M193.202 121.876C194.625 120.184 196.052 118.581 197.348 116.847C197.716 116.355 199.958 113.612 198.989 115.016" stroke="#00ADB5" stroke-opacity="0.5" stroke-linecap="round" stroke-linejoin="round"/>
<path d="M194.697 124.846C196.548 123.209 199.216 121.027 199.814 118.582C199.99 117.862 200.371 117.143 200.93 116.647C201.497 116.145 202.09 115.919 201.243 116.765" stroke="#00ADB5" stroke-opacity="0.5" stroke-linecap="round" stroke-linejoin="round"/>
<path d="M193.212 124.791C195.186 122.664 196.873 121.235 197.989 118.616C198.278 117.936 198.611 117.372 199.086 116.836C199.59 116.269 200.313 115.738 199.34 116.753" stroke="#00ADB5" stroke-opacity="0.5" stroke-linecap="round" stroke-linejoin="round"/>
<path d="M200.547 125.838C201.456 126.414 202.368 126.948 203.312 127.428C203.703 127.626 203.22 127.243 203.054 127.18" stroke="#00ADB5" stroke-opacity="0.5" stroke-linecap="round" stroke-linejoin="round"/>
<path d="M202.318 122.99C202.38 123.042 205.954 126.105 205.32 125.422" stroke="#00ADB5" stroke-opacity="0.5" stroke-linecap="round" stroke-linejoin="round"/>
<path d="M204.441 121.88C205.23 122.638 207.644 124.857 206.794 124.168" stroke="#00ADB5" stroke-opacity="0.5" stroke-linecap="round" stroke-linejoin="round"/>
<path d="M199.491 127.047C200.797 125.831 203.662 123.42 204.364 121.55C204.641 120.813 205.908 119.866 204.717 120.879" stroke="#00ADB5" stroke-opacity="0.5" stroke-linecap="round" stroke-linejoin="round"/>
<path d="M199.655 127.41C199.779 127.51 202.278 130.201 202.811 128.896C203.083 128.23 203.437 127.362 204.105 126.995C205.275 126.351 205.491 124.322 206.69 123.778C208.049 123.16 207.922 122.125 206.656 121.758C206.159 121.614 206.551 120.633 206.034 120.71C205.562 120.781 205.311 120.606 204.783 120.703" stroke="#00ADB5" stroke-opacity="0.5" stroke-linecap="round" stroke-linejoin="round"/>
<path d="M192.113 122.371C192.97 124.009 193.132 124.602 194.515 125.285C194.888 125.47 195.376 125.214 195.659 125.358C196.219 125.642 197.327 125.648 197.745 125.132C198.587 124.093 198.896 123.423 200.185 122.791C200.998 122.393 201.652 121.453 202.029 120.673C202.442 119.816 203.187 119.171 203.624 118.311C203.81 117.945 202.309 117.002 202.295 116.368C202.292 116.188 200.51 116.183 200.213 116.033C199.854 115.85 199.689 115.593 199.517 115.214C199.265 114.659 198.819 115.348 198.142 115.4" stroke="#00ADB5" stroke-opacity="0.5" stroke-linecap="round" stroke-linejoin="round"/>
<path d="M162.434 143.147C164.458 143.916 166.223 144.908 168.046 146.006C169.628 146.96 171.416 147.467 172.989 148.391C174.108 149.049 175.27 150.551 176.096 151.537C176.371 151.866 176.576 152.173 176.772 152.544C177.22 153.394 176.754 151.339 176.706 151.114" stroke="#00ADB5" stroke-opacity="0.5" stroke-linecap="round" stroke-linejoin="round"/>
<path d="M181.981 127.701C182.543 128.291 184.816 131.545 184.368 129.099" stroke="#00ADB5" stroke-opacity="0.5" stroke-linecap="round" stroke-linejoin="round"/>
<path d="M186.661 353.572C186.902 354.811 187.514 355.616 187.989 356.743C188.312 357.511 188.917 358.106 189.253 358.859C189.617 359.672 190.161 360.628 190.668 361.352C191.102 361.972 191.387 362.56 191.935 363.109C192.904 364.077 193.637 365.232 194.61 366.187C196.025 367.575 198.421 369.386 200.482 369.272C201.145 369.235 201.878 369.44 202.527 369.342C203.084 369.258 203.761 369.23 204.319 369.326C205.237 369.484 206.232 369.325 207.11 369.515C207.583 369.618 208.099 369.468 208.579 369.557C209.2 369.672 209.929 369.701 210.563 369.701C212.637 369.701 214.706 369.688 216.774 369.426C217.895 369.283 219.005 369.655 220.115 369.458C221.156 369.272 222.544 369.464 223.523 369.035C224.727 368.508 225.925 367.68 226.854 366.75C227.321 366.284 227.675 365.727 227.991 365.15C228.405 364.393 228.636 363.576 229.053 362.82C230.507 360.186 231.335 357.253 232.512 354.507C232.79 353.859 233.246 353.335 233.578 352.737C233.662 352.586 233.7 352.392 233.837 352.247C234.35 351.704 233.367 351.646 232.915 351.441" stroke="#00ADB5" stroke-opacity="0.5" stroke-linecap="round" stroke-linejoin="round"/>
<path d="M186.431 353.687C187.46 352.341 188.333 351.351 189.829 350.59C191.082 349.952 192.381 349.195 193.512 348.362C195.252 347.084 197.645 346.514 199.762 346.129C202.067 345.71 204.335 345.22 206.681 345.22C207.407 345.22 208.125 345.438 208.851 345.45C209.72 345.465 210.591 345.492 211.455 345.566C212.783 345.679 214.145 345.652 215.475 345.681C217.33 345.721 219.105 346.681 220.96 346.83C222.063 346.918 223.35 347.083 224.422 347.383C224.824 347.496 225.283 347.572 225.658 347.754C226.124 347.981 226.451 348.365 226.88 348.631C228.264 349.492 229.811 349.897 231.306 350.551C231.764 350.752 232.552 351.095 233.059 351.095C233.758 351.095 233.722 352.385 233.722 351.095" stroke="#00ADB5" stroke-opacity="0.5" stroke-linecap="round" stroke-linejoin="round"/>
<path d="M233.607 351.902C232.752 353.047 232.144 353.483 230.932 354.151C229.98 354.676 228.926 355.048 227.859 355.243C226.864 355.425 225.777 355.568 224.768 355.649C223.928 355.716 223.072 355.619 222.214 355.716C220.275 355.937 218.318 356.437 216.448 356.984C213.778 357.764 211.199 357.845 208.441 357.995C205.431 358.158 202.412 357.928 199.462 357.316C198.467 357.11 197.415 357.295 196.402 357.256C195.287 357.212 194.194 356.905 193.145 356.542C192.703 356.389 192.296 356.155 191.833 356.049C191.29 355.926 190.739 355.974 190.201 355.844C189.45 355.663 188.575 355.336 187.941 354.897C187.666 354.706 187.252 354.549 187.036 354.26C186.973 354.176 186.892 353.989 186.892 353.889C186.892 353.651 186.696 353.711 187.007 353.918" stroke="#00ADB5" stroke-opacity="0.5" stroke-linecap="round" stroke-linejoin="round"/>
<path d="M208.838 363.595C209.539 363.517 210.465 363.53 210.176 362.629C210.082 362.339 209.848 362.308 209.599 362.225C208.859 361.978 207.532 362.457 207.254 363.23C206.754 364.618 207.7 366.118 209.187 365.637C209.591 365.506 210.309 365.22 210.566 364.853C210.875 364.412 210.411 364.542 210.105 364.113" stroke="#00ADB5" stroke-opacity="0.5" stroke-linecap="round" stroke-linejoin="round"/>
<path d="M206.706 362.097C207.824 361.649 208.395 361.464 209.525 361.464C209.981 361.464 210.209 361.432 210.61 361.694C211.274 362.128 211.502 362.952 211.433 363.678C211.374 364.291 211.171 365.131 210.956 365.713C210.796 366.146 210.399 366.221 209.993 366.302C209.622 366.376 208.812 366.169 208.521 366.331C208.211 366.503 207.263 366.561 207.023 366.241C206.802 365.947 206.566 365.821 206.405 365.464C206.252 365.123 206.183 364.798 206.06 364.459C205.891 363.994 205.586 362.723 206.217 362.443C206.586 362.279 206.744 362.181 207.167 362.181C207.287 362.181 207.39 362.27 207.513 362.27C207.69 362.27 207.171 362.155 206.994 362.155" stroke="#00ADB5" stroke-opacity="0.5" stroke-linecap="round" stroke-linejoin="round"/>
<path d="M208.723 357.489C209.535 356.439 210.277 355.355 211.116 354.334C211.567 353.785 212.128 353.313 212.614 352.788C214.006 351.285 215.425 349.639 216.486 347.882C217.532 346.152 218.959 344.267 220.509 342.967C221.327 342.28 222.059 341.522 222.771 340.73C223.462 339.962 223.78 338.889 224.435 338.077C224.942 337.449 228.261 333.174 228.839 335.773C229.065 336.795 228.069 337.509 227.443 338.135C226.733 338.845 226.02 339.747 225.414 340.554C224.831 341.332 224.122 342.016 223.555 342.801C222.784 343.868 221.381 344.632 220.819 345.841C220.355 346.838 219.586 347.64 219.008 348.564C218.207 349.845 217.269 350.915 216.326 352.087C215.579 353.016 214.408 353.78 213.878 354.84C213.436 355.724 212.651 356.097 211.936 356.67C211.624 356.919 211.245 357.058 210.969 357.403C210.877 357.518 210.713 357.65 210.627 357.521C210.578 357.448 210.39 357.613 210.425 357.694C210.548 357.981 210.249 357.005 210.22 356.913" stroke="#00ADB5" stroke-opacity="0.5" stroke-linecap="round" stroke-linejoin="round"/>
<path d="M208.262 357.777C208.482 357.889 209.875 358.946 209.875 358.094C209.875 357.836 210.206 357.406 210.323 357.144C210.411 356.945 209.615 357.135 209.497 357.288C209.342 357.486 209.042 357.648 209.529 357.662C209.903 357.673 210.195 357.512 210.479 357.291C210.561 357.227 211.66 357.401 210.681 357.374C210.16 357.359 209.654 357.374 209.155 357.374C208.722 357.374 209.598 357.259 209.724 357.259C209.825 357.259 208.994 357.753 208.851 357.592C208.816 357.552 208.755 357.444 208.895 357.374" stroke="#00ADB5" stroke-opacity="0.5" stroke-linecap="round" stroke-linejoin="round"/>
<path d="M189.944 353.515C190.009 353.549 192.068 354.627 192.076 354.494C192.085 354.333 191.97 354.192 192.05 354.033C192.398 353.336 192.849 353.67 193.448 353.94C193.916 354.151 193.206 351.82 194.616 352.804C195.345 353.313 195.539 353.232 195.42 352.379C195.329 351.733 195.552 351.731 196.108 351.799C196.485 351.846 196.756 351.928 196.972 351.569C197.233 351.133 197.528 350.885 198.063 351.073C198.506 351.229 198.9 351.668 199.205 351.108C199.34 350.862 199.226 350.125 199.65 350.267C199.916 350.355 200.266 350.702 200.569 350.593C200.798 350.51 200.974 349.799 201.234 349.911C201.505 350.029 201.782 350.543 202.124 350.42C202.289 350.361 202.595 349.821 202.271 349.886" stroke="#00ADB5" stroke-opacity="0.5" stroke-linecap="round" stroke-linejoin="round"/>
<path d="M198.066 352.478C198.78 353.059 201.454 356.162 202.239 353.844C202.38 353.429 202.402 352.607 202.796 353.287C203.121 353.848 203.609 354.237 204.14 353.707C204.492 353.355 204.648 352.758 205.151 352.574C205.613 352.405 205.952 353.273 206.335 352.766C206.645 352.357 206.495 351.654 206.041 351.409C205.892 351.328 205.851 351.606 205.785 351.671" stroke="#00ADB5" stroke-opacity="0.5" stroke-linecap="round" stroke-linejoin="round"/>
<path d="M204.229 348.907C205.342 348.715 206.743 348.326 207.59 349.323C207.982 349.784 207.945 350.374 207.686 350.897C207.496 351.279 206.987 351.47 206.662 351.095C206.395 350.788 206.945 350.281 207.142 350.094C207.816 349.451 208.815 350.48 209.026 351.179C209.203 351.762 207.608 353.114 207.801 352.535" stroke="#00ADB5" stroke-opacity="0.5" stroke-linecap="round" stroke-linejoin="round"/>
<path d="M222.95 350.865C223.281 350.751 225.406 350.067 224.998 351.198C224.789 351.778 223.988 352.089 223.462 352.279C223.214 352.369 222.572 352.354 222.989 351.991C223.35 351.678 223.859 351.53 224.333 351.569C226.181 351.719 223.596 353.843 223.065 354.135C222.034 354.704 220.631 355.303 219.552 354.609" stroke="#00ADB5" stroke-opacity="0.5" stroke-linecap="round" stroke-linejoin="round"/>
<path d="M211.603 347.466C212.041 348.18 212.569 348.896 212.944 349.646C213.073 349.904 212.515 349.243 212.384 348.987C212.349 348.919 212.109 348.162 212.086 348.167C211.805 348.23 211.74 349.514 211.664 349.751C211.305 350.873 210.418 350.443 209.548 350.359C208.496 350.258 208.025 351.296 207.443 351.959C206.977 352.49 206.794 352.653 207.11 353.284C207.365 353.795 207.472 354.291 207.11 354.753C206.828 355.114 206.474 355.342 206.134 355.64C205.822 355.912 206.269 355.867 206.211 355.704C206.051 355.256 205.065 355.349 204.742 355.371C203.543 355.45 202.322 355.149 201.145 355.224C200.52 355.263 199.931 355.612 199.311 355.704C198.682 355.797 199.514 356.343 199.75 356.5C200.155 356.771 198.955 355.925 198.514 355.716C197.775 355.366 197.092 355.096 196.71 354.321C196.326 353.545 195.988 353.016 195.34 352.446C195.116 352.249 195.09 351.951 195.199 351.684C195.452 351.067 196.013 350.565 196.569 350.231" stroke="#00ADB5" stroke-opacity="0.5" stroke-linecap="round" stroke-linejoin="round"/>
<path d="M211.487 349.771C210.043 348.763 208.852 348.329 207.154 348.1C206.557 348.02 205.921 347.606 205.532 347.15C205.186 346.744 205.382 346.852 204.975 347.402C204.419 348.155 204.006 347.479 203.295 347.678C202.206 347.981 201.271 348.994 200.165 349.182C199.863 349.233 199.936 348.727 199.557 348.945C198.92 349.312 198.433 349.66 197.688 349.777C197.238 349.848 196.385 350.144 196.453 350.692" stroke="#00ADB5" stroke-opacity="0.5" stroke-linecap="round" stroke-linejoin="round"/>
<path d="M221.279 349.771C222.673 349.905 224.084 349.887 225.471 350.036C225.96 350.088 226.209 350.286 226.553 350.606C226.863 350.894 227.347 351.574 227.792 351.611C228.433 351.664 228.764 351.398 229.363 351.211C229.723 351.098 230.873 351.211 230.496 351.211" stroke="#00ADB5" stroke-opacity="0.5" stroke-linecap="round" stroke-linejoin="round"/>
<path d="M220.243 351.326C218.745 352.313 217.945 353.81 216.342 354.708C216.025 354.886 215.053 355.231 215.126 355.815C215.179 356.239 218.424 354.914 218.918 354.667" stroke="#00ADB5" stroke-opacity="0.5" stroke-linecap="round" stroke-linejoin="round"/>
<path d="M225.83 352.708C226.644 353.314 227.347 354.181 228.365 353.873C228.64 353.79 229.216 353.757 229.401 353.572" stroke="#00ADB5" stroke-opacity="0.5" stroke-linecap="round" stroke-linejoin="round"/>
<path d="M427.131 327.597C422.925 328.404 419.867 329.619 417.201 333.047C415.511 335.219 415.881 338.638 416.989 340.941C418.813 344.736 423.297 346.879 427.343 347.065C432.056 347.281 438.609 345.896 439.575 340.275C440.093 337.262 437.214 334.413 435.866 331.942C434.769 329.931 433.118 327.221 430.81 326.371C429.867 326.024 427.68 326.144 426.995 327.082C426.689 327.501 426.294 327.944 426.071 328.414C425.891 328.796 426.085 327.444 426.041 327.052" stroke="#00ADB5" stroke-opacity="0.5" stroke-linecap="round" stroke-linejoin="round"/>
<path d="M428.902 337.951C427.767 338.535 425.925 338.921 426.919 340.199C427.146 340.491 427.469 340.475 427.744 340.199C427.98 339.964 429.166 338.728 428.289 338.436C426.501 337.84 427.155 341.407 428.433 339.829C429.119 338.981 428.159 338.146 427.298 338.663C426.272 339.278 427.083 340.353 427.888 339.42C428.494 338.716 428.01 338.177 427.351 338.837C426.76 339.428 427.36 340.37 427.941 339.571C428.537 338.752 427.857 338.058 427.139 338.776C426.307 339.608 427.207 339.521 427.797 338.973C428.392 338.421 427.337 338.502 426.995 338.935C426.2 339.941 427.445 339.798 427.646 338.935C427.94 337.668 426.633 340.58 427.267 338.36" stroke="#00ADB5" stroke-opacity="0.5" stroke-linecap="round" stroke-linejoin="round"/>
<path d="M424.271 333.728C425.481 335.325 426.721 336.839 427.737 338.436C428.019 338.878 427.794 339.322 427.949 339.314C428.522 339.282 429.11 339.178 429.72 339.178C431.118 339.178 432.218 338.496 433.565 338.496C435.196 338.496 437.593 338.073 434.897 336.725" stroke="#00ADB5" stroke-opacity="0.5" stroke-linecap="round" stroke-linejoin="round"/>
<path d="M422.908 327.461C422.653 326.173 421.41 323.05 423.725 323.381C424.556 323.5 425.114 324.359 425.602 324.902C426.874 326.315 426.738 328.021 424.679 328.142C424.14 328.174 423.38 329.243 422.772 328.483C422.082 327.621 422.786 327.679 422.908 326.643C422.988 325.966 422.545 326.022 422.355 325.356C422.209 324.846 422.512 324.287 422.635 323.918" stroke="#00ADB5" stroke-opacity="0.5" stroke-linecap="round" stroke-linejoin="round"/>
<path d="M423.725 325.962C423.713 326.287 423.211 329.22 424.278 328.74C424.635 328.579 424.943 328.346 425.087 327.975C425.227 327.617 425.079 327.402 424.921 327.052C424.515 326.149 423.336 324.745 423.695 326.779C423.921 328.063 425.355 327.763 425.466 326.537C425.551 325.601 424.371 324.347 423.619 325.417C423.087 326.174 424.034 327.842 424.588 326.673C424.869 326.08 424.197 324.571 423.483 325.311C422.751 326.069 423.851 327.669 424.573 327.022C425.286 326.382 424.801 324.43 424.028 325.175C423.32 325.856 424.382 327.212 424.921 326.174C425.522 325.016 424.198 324.143 423.786 325.356C423.418 326.44 424.565 327.604 424.83 326.128C425.032 325.005 422.968 324.408 422.968 325.75C422.968 326.987 424.073 326.86 424.073 325.735C424.073 324.562 422.892 324.826 423.384 325.811C423.877 326.795 424.537 325.048 423.982 324.494C423.335 323.847 422.479 324.847 423.241 325.47C423.76 325.895 424.47 324.132 423.596 323.805C422.842 323.522 423.259 325.062 423.521 324.713C423.926 324.173 423.305 323.811 423.733 323.918C424.11 324.013 425.026 324.214 425.284 324.547C425.488 324.808 426.314 326.265 426.314 326.643C426.314 327.8 424.544 328.424 423.528 328.134C422.8 327.926 422.584 328.441 422.839 328.271C423.459 327.857 423.589 326.779 423.589 327.188" stroke="#00ADB5" stroke-opacity="0.5" stroke-linecap="round" stroke-linejoin="round"/>
<path d="M423.589 346.943C422.887 348.432 422.265 349.927 421.439 351.334C421.253 351.65 420.905 352.297 420.864 352.666C420.754 353.66 421.752 350.295 421.954 349.805" stroke="#00ADB5" stroke-opacity="0.5" stroke-linecap="round" stroke-linejoin="round"/>
<path d="M437.35 344.082C439.075 346.261 440.978 347.815 442.322 350.206C442.455 350.441 442.684 350.628 442.867 350.811C443.48 351.423 441.731 349.505 441.164 348.851" stroke="#00ADB5" stroke-opacity="0.5" stroke-linecap="round" stroke-linejoin="round"/>
<path d="M323.065 217.051C324.144 221.123 328.31 236.26 329.306 241.791C332.05 257.019 327.745 236.24 327.734 242.966" stroke="#00ADB5" stroke-opacity="0.5" stroke-width="2" stroke-linecap="round" stroke-linejoin="round"/>
<path d="M315.753 223.634C315.385 217.438 313.995 208.838 322.684 209.723C326.771 210.14 331.274 212.566 333.822 215.812C337.76 220.828 335.682 228.604 331.427 232.596C329.163 234.72 326.966 235.785 324.002 236.588C318.981 237.949 322.944 230.976 323.752 229.064" stroke="#00ADB5" stroke-opacity="0.5" stroke-width="2" stroke-linecap="round" stroke-linejoin="round"/>
<path d="M338.351 231.207C346.984 230.745 354.931 229.046 358.019 238.408C359.814 243.849 361.999 250.46 360.503 256.194C359.151 261.375 356.239 264.614 350.915 262.407C343.307 259.253 343.318 253.315 347.458 247.393C348.983 245.213 354.822 240.847 354.826 238.298" stroke="#00ADB5" stroke-opacity="0.5" stroke-width="2" stroke-linecap="round" stroke-linejoin="round"/>
<path d="M353.912 221.104C353.617 223.375 353.612 239.444 349.264 239.598C348.448 239.627 347.763 240.051 347.051 240.406C344.313 241.769 345.979 240.542 347.001 239.123C349.316 235.909 354.005 237.097 356.353 232.831C358.903 228.199 360.077 225.921 356.422 222.338C353.86 219.826 354.986 215.555 352.969 221.573" stroke="#00ADB5" stroke-opacity="0.5" stroke-width="2" stroke-linecap="round" stroke-linejoin="round"/>
<path d="M366.653 206.522C369.989 214.033 373.039 223.815 378.391 230.354C379.805 232.082 380.599 230.578 380.578 229.232C380.551 227.532 380.071 225.816 379.578 224.206" stroke="#00ADB5" stroke-opacity="0.5" stroke-width="2" stroke-linecap="round" stroke-linejoin="round"/>
<path d="M356.965 226.055C362.259 223.972 375.257 221.864 377.473 215.253" stroke="#00ADB5" stroke-opacity="0.5" stroke-width="2" stroke-linecap="round" stroke-linejoin="round"/>
<path d="M373.247 206.768C396.192 246.902 373.837 218.694 385.5 211.353C392.579 206.898 393.17 227.897 395.131 218.814" stroke="#00ADB5" stroke-opacity="0.5" stroke-width="2" stroke-linecap="round" stroke-linejoin="round"/>
<path d="M393.739 205.387C394.572 207.876 397.368 224.307 403.189 220.554C405.791 218.875 408.823 215.675 409.325 212.529C409.863 209.154 407.755 200.579 402.983 201.502C400.805 201.924 397.164 202.025 395.743 204.095C394.37 206.095 393.503 210.779 395.152 205.86" stroke="#00ADB5" stroke-opacity="0.5" stroke-width="2" stroke-linecap="round" stroke-linejoin="round"/>
<path d="M409.996 201.409C416.503 197.231 424.151 195.86 425.141 205.698C425.266 206.933 425.289 208.488 425.855 209.625C426.511 210.943 425.163 206.403 423.885 205.67" stroke="#00ADB5" stroke-opacity="0.5" stroke-width="2" stroke-linecap="round" stroke-linejoin="round"/>
<path d="M409.52 205.176C409.814 210.319 409.079 217.286 411.482 222.111C411.564 222.275 412.135 223.534 411.847 222.844C411.277 221.479 411.042 220.553 409.969 219.073" stroke="#00ADB5" stroke-opacity="0.5" stroke-width="2" stroke-linecap="round" stroke-linejoin="round"/>
<path d="M244.833 251.734C243.932 260.093 245.503 285.829 231.305 284.227C228.345 283.894 225.657 283.399 224.251 280.61C222.778 277.69 221.56 275.149 221.414 271.832C221.234 267.758 222.856 265.835 226.15 263.996C227.305 263.352 224.823 265.962 224.603 266.215C223.155 267.878 228.067 265.851 229.945 265.434" stroke="#00ADB5" stroke-opacity="0.5" stroke-width="2" stroke-linecap="round" stroke-linejoin="round"/>
<path d="M263.061 255.75C255.879 256.422 245.743 257.783 244.585 266.767C243.956 271.639 251.201 272.232 254.346 273.892C259.749 276.743 263.848 286.043 257.788 290.136C253.573 292.982 250.386 291.469 246.286 291.753C242.122 292.042 245.021 290.507 247.49 290.086" stroke="#00ADB5" stroke-opacity="0.5" stroke-width="2" stroke-linecap="round" stroke-linejoin="round"/>
<path d="M301.974 34.5734C301.398 40.3406 301.048 46.1668 300.336 51.9204C300.268 52.4739 299.723 54.6592 300.367 52.8924C300.838 51.6006 300.686 50.2544 301.443 49.0294C302.485 47.3422 307.195 40.9151 309.407 41.5652C313.84 42.8682 309.366 51.0911 308.096 53.4474C307.659 54.2601 306.466 56.0228 307.083 56.9342C307.907 58.1491 309.43 53.6592 309.494 53.5219" stroke="#00ADB5" stroke-opacity="0.5" stroke-width="2" stroke-linecap="round" stroke-linejoin="round"/>
<path d="M319.481 38.3603C318.956 40.9369 314.543 53.655 318.795 55.7616C319.995 56.3561 322.65 55.2339 323.475 54.2665C324.334 53.2591 323.885 51.7166 323.792 50.5474" stroke="#00ADB5" stroke-opacity="0.5" stroke-width="2" stroke-linecap="round" stroke-linejoin="round"/>
<path d="M310.733 38.6382C315.399 40.0256 320.197 40.9493 324.832 42.3807C325.927 42.7186 326.337 42.8716 326.926 43.8477C327.842 45.366 325.408 43.9791 324.988 43.5192" stroke="#00ADB5" stroke-opacity="0.5" stroke-width="2" stroke-linecap="round" stroke-linejoin="round"/>
<path d="M331.831 47.6529C330.76 50.8857 329.754 54.1591 328.531 57.3404C328.289 57.9729 328.252 58.2042 328.121 57.7211C327.995 57.2557 327.872 56.9815 328.079 56.49C329.177 53.878 331.74 50.1241 334.158 48.6652C336.768 47.0897 335.344 52.3816 334.993 53.4529C334.599 54.656 333.538 57.9535 334.745 54.7627C335.462 52.8638 337.11 48.1445 339.888 48.8314C341.57 49.2474 341.182 51.5219 340.885 52.7246C340.336 54.9425 339.791 57.1455 339.241 59.3708C338.437 62.6225 338.871 60.8665 339.459 58.4903" stroke="#00ADB5" stroke-opacity="0.5" stroke-width="2" stroke-linecap="round" stroke-linejoin="round"/>
<path d="M352.57 40.5746C350.894 46.6027 348.838 52.6134 347.394 58.7042C347.224 59.4185 346.855 62.0634 347.992 62.3784C349.073 62.6777 353.341 60.1129 352.298 59.2238" stroke="#00ADB5" stroke-opacity="0.5" stroke-width="2" stroke-linecap="round" stroke-linejoin="round"/>
<path d="M62.4268 286.46C58.4636 293.989 54.513 301.525 50.539 309.048C49.4064 311.193 47.1707 317.753 46.8939 315.344C46.5186 312.077 48.5146 307.504 49.3616 304.443C50.5569 300.122 52.9908 291.49 59.0557 291.522C63.6338 291.547 68.7805 298.26 69.4904 302.448C69.9917 305.406 71.4493 302.066 73.4277 301.174" stroke="#00ADB5" stroke-opacity="0.5" stroke-width="2" stroke-linecap="round" stroke-linejoin="round"/>
<path d="M74.7115 310.581C77.3748 316.775 81.3008 327.246 89.3856 321.485C93.1005 318.838 91.2544 314.308 87.5871 312.869C78.5999 309.343 67.2753 319.189 65.034 327.282C62.7931 335.374 71.6392 337.855 77.7244 338.654C81.0916 339.096 80.3364 336.218 83.2337 335.216" stroke="#00ADB5" stroke-opacity="0.5" stroke-width="2" stroke-linecap="round" stroke-linejoin="round"/>
<path d="M97.0939 331.997C90.1124 329.082 80.8631 326.483 76.9287 335.405C75.0323 339.705 83.5194 340.209 86.0367 340.091C90.8446 339.865 101.551 328.735 97.9436 331.922C94.7784 334.719 91.5749 338.02 90.2734 342.15C89.4328 344.817 90.3983 350.711 93.4908 346.641" stroke="#00ADB5" stroke-opacity="0.5" stroke-width="2" stroke-linecap="round" stroke-linejoin="round"/>
<path d="M124.243 337.579C114.11 338.551 102.101 339.06 98.5061 350.445C96.7388 356.041 100.885 359.933 105.881 361.575C109.372 362.723 112.931 360.231 115.049 357.703" stroke="#00ADB5" stroke-opacity="0.5" stroke-width="2" stroke-linecap="round" stroke-linejoin="round"/>
<path d="M133.447 339.123C132.891 339.799 107.93 367.004 119.828 367.214C123.123 367.273 126.504 365.356 128.773 363.201" stroke="#00ADB5" stroke-opacity="0.5" stroke-width="2" stroke-linecap="round" stroke-linejoin="round"/>
<path d="M112.305 344.073C117.097 347.378 121.822 350.878 127.079 353.432C128.444 354.096 130.72 354.412 131.659 355.788C132.187 356.561 131.357 354.725 131.265 354.458" stroke="#00ADB5" stroke-opacity="0.5" stroke-width="2" stroke-linecap="round" stroke-linejoin="round"/>
<path d="M58.848 126.255C62.8699 133.133 75.6419 153.199 70.4568 147.15C67.1426 143.283 64.6252 138.151 62.5238 133.576C60.3186 128.776 58.2481 120.211 66.6512 120.645C73.8634 121.019 76.7426 128.384 78.0114 134.421C78.5711 137.084 78.7138 139.153 79.9085 141.575C81.13 144.052 81.1977 134.509 81.662 132.033" stroke="#00ADB5" stroke-opacity="0.5" stroke-width="2" stroke-linecap="round" stroke-linejoin="round"/>
<path d="M84.8324 112.267C85.0567 113.307 88.5333 137.092 93.5792 132.518C95.7038 130.592 96.1707 125.844 96.4435 123.243C97.2961 115.114 93.8621 114.11 88.1552 112.39C85.4327 111.569 84.8748 111.606 84.1271 114.409C82.5919 120.164 85.0119 118.547 88.1128 115.347" stroke="#00ADB5" stroke-opacity="0.5" stroke-width="2" stroke-linecap="round" stroke-linejoin="round"/>
<path d="M106.773 105.557C103.969 110.282 100.394 115.84 102.367 121.627C103.185 124.028 105.088 123.393 106.421 122.042C108.524 119.909 109.62 116.404 109.503 113.475C109.279 107.861 105.762 103.057 102.072 99.0675C101.56 98.5145 96.8999 94.6725 97.8125 97.9711C99.4518 103.896 104.014 109.595 107.193 114.745C112.433 123.232 114.04 119.936 116.394 111.969" stroke="#00ADB5" stroke-opacity="0.5" stroke-width="2" stroke-linecap="round" stroke-linejoin="round"/>
<path d="M116.893 107.026C118.632 108.649 132.362 118.456 132.788 109.757C132.827 108.968 131.821 108.721 131.489 108.049C130.635 106.316 129.219 105.173 128.448 104.264" stroke="#00ADB5" stroke-opacity="0.5" stroke-width="2" stroke-linecap="round" stroke-linejoin="round"/>
<path d="M118.038 112.921C112.602 105.782 105.008 98.3596 112.792 91.302C116.072 88.3283 122.878 90.6798 122.7 95.6483C122.617 97.9625 122.129 103.685 118.805 104.289C117.048 104.608 116.238 103.458 117.863 101.85" stroke="#00ADB5" stroke-opacity="0.5" stroke-width="2" stroke-linecap="round" stroke-linejoin="round"/>
<path d="M130.448 83.3129C133.963 85.5493 159.008 100.35 145.89 106.819C143.845 107.828 142.046 105.478 140.959 103.966C138.509 100.558 145.647 95.7227 145.944 92.1126" stroke="#00ADB5" stroke-opacity="0.5" stroke-width="2" stroke-linecap="round" stroke-linejoin="round"/>
<path d="M151.005 71.4142C148.96 73.0849 137.225 83.4619 146.453 85.4682C151.549 86.5765 156.367 81.4976 160.241 78.9626C166.481 74.8786 167.798 82.7372 166.083 87.1727C165.033 89.8891 156.267 98.7785 158.666 91.7114" stroke="#00ADB5" stroke-opacity="0.5" stroke-width="2" stroke-linecap="round" stroke-linejoin="round"/>
<path d="M220.261 457.65C212.455 461.578 202.226 468.742 210.665 478.247C214.713 482.807 222.186 480.939 227.517 480.412C229.015 480.264 233.148 481.705 232.023 480.705C229.589 478.542 227.838 478.681 227.108 475.029" stroke="#00ADB5" stroke-opacity="0.5" stroke-width="2" stroke-linecap="round" stroke-linejoin="round"/>
<path d="M243.434 455.016C243.434 460.771 243.38 464.891 249.285 467.129C251.835 468.096 253.436 468.983 254.113 471.84C254.878 475.069 252.625 479.747 249.958 481.553C246.661 483.786 242.52 484.566 238.811 483.045C235.635 481.744 239.146 480.204 240.801 478.715" stroke="#00ADB5" stroke-opacity="0.5" stroke-width="2" stroke-linecap="round" stroke-linejoin="round"/>
<path d="M269.239 448.697C268.203 452.71 263.534 463.443 267.688 467.597C269.365 469.274 272.613 468.343 274.681 468.826C276.739 469.307 278.504 470.882 279.772 472.513C281.779 475.094 279.868 479.006 277.548 480.822C273.949 483.639 268.807 482.402 264.616 482.402C262.329 482.402 263.891 482.24 265.026 480.822" stroke="#00ADB5" stroke-opacity="0.5" stroke-width="2" stroke-linecap="round" stroke-linejoin="round"/>
<path d="M260.16 398.752C264.217 397.204 271.743 394.74 275.667 391.964C279.809 389.034 275.472 388.192 273.268 388.892C269.533 390.079 267.277 393.99 266.012 397.436C262.679 406.507 273.28 416.761 282.191 415.722C290.427 414.761 291.575 410.729 292.812 404.545" stroke="#00ADB5" stroke-opacity="0.5" stroke-width="2" stroke-linecap="round" stroke-linejoin="round"/>
<path d="M298.079 394.012C297.156 395.515 288.391 413.561 285.966 405.072" stroke="#00ADB5" stroke-opacity="0.5" stroke-width="2" stroke-linecap="round" stroke-linejoin="round"/>
<path d="M281.753 394.539C285.451 399.482 294.385 417.156 303.345 416.658C304.644 416.586 302.921 411.583 302.819 410.865" stroke="#00ADB5" stroke-opacity="0.5" stroke-width="2" stroke-linecap="round" stroke-linejoin="round"/>
<path d="M305.978 394.539C308.021 406.506 312.113 442.674 309.782 430.76C308.58 424.617 297.604 391.374 307.266 392.754C311.456 393.353 322.152 399.466 319.349 405.072C317.773 408.224 308.006 409.324 312.298 407.178" stroke="#00ADB5" stroke-opacity="0.5" stroke-width="2" stroke-linecap="round" stroke-linejoin="round"/>
<path d="M325.99 402.965C327.291 409.736 328.544 416.502 329.677 423.299C329.871 424.463 329.61 423.504 329.267 422.861C327.113 418.821 324.164 411.623 324.264 407.091C324.36 402.797 330.267 399.869 333.363 402.965" stroke="#00ADB5" stroke-opacity="0.5" stroke-width="2" stroke-linecap="round" stroke-linejoin="round"/>
<path d="M342.843 410.865C342.706 415.821 346.301 433.172 354.838 428.127C356.061 427.404 359.079 425.638 359.168 424.031C359.216 423.174 357.657 422.978 357.062 422.978C355.497 422.978 355.106 421.037 354.429 419.818" stroke="#00ADB5" stroke-opacity="0.5" stroke-width="2" stroke-linecap="round" stroke-linejoin="round"/>
<path d="M340.21 412.445C344.823 407.673 350.011 401.099 354.107 409.607C355.307 412.098 354.889 415.099 353.903 417.594C352.309 421.625 346.602 423.215 348.11 417.185" stroke="#00ADB5" stroke-opacity="0.5" stroke-width="2" stroke-linecap="round" stroke-linejoin="round"/>
<path d="M368.648 402.965C372.258 408.733 386.856 424.281 377.279 431.375C374.215 433.644 372.215 433.634 368.765 433.51C363.894 433.336 366.468 432.102 368.121 428.244" stroke="#00ADB5" stroke-opacity="0.5" stroke-width="2" stroke-linecap="round" stroke-linejoin="round"/>
<path d="M390.767 400.859C389.677 402.178 375.595 415.792 384.155 417.243C387.31 417.778 390.21 415.867 393.108 417.799C398.336 421.285 397.098 426.01 392.289 428.975C389.885 430.458 387.203 431.235 384.682 432.457C383.257 433.148 384.775 431.147 384.974 430.351" stroke="#00ADB5" stroke-opacity="0.5" stroke-width="2" stroke-linecap="round" stroke-linejoin="round"/>
<path d="M378.654 395.066C377.432 395.964 364.265 403.271 366.132 407.705C368.488 413.299 369.266 406.413 369.702 404.019" stroke="#00ADB5" stroke-opacity="0.5" stroke-width="2" stroke-linecap="round" stroke-linejoin="round"/>
<path d="M54.9717 222.794C57.3172 217.263 56.3566 212.444 56.3566 206.712C56.3566 205.597 56.1543 202.201 57.326 201.593C59.1739 200.634 60.9007 199.994 63.0809 199.994C64.5304 199.994 65.9867 200.036 67.4356 199.994C68.8846 199.953 70.2883 199.363 71.721 199.188C74.3867 198.861 77.1594 199.316 79.7918 199.316C81.8819 199.316 84.0441 199.587 86.0545 199.587C86.4114 199.587 87.8666 199.757 88.101 199.964C88.8186 200.597 88.6131 201.612 89.1782 202.166" stroke="#00ADB5" stroke-opacity="0.5" stroke-linecap="round" stroke-linejoin="round"/>
<path d="M89.0399 202.656C89.1312 204.288 89.1654 206.578 89.8368 208.173C90.272 209.206 89.925 210.582 90.0131 211.683C90.1821 213.795 89.8675 215.855 89.8675 217.905C89.8675 220.655 90.0054 223.369 90.0054 226.104C90.0054 228.451 87.7119 228.058 85.8982 227.728C84.3313 227.443 82.2287 228.015 80.5956 228.035C77.4451 228.074 74.2798 228.311 71.1244 228.311C68.4891 228.311 66.5322 227.545 64.1054 226.625C62.8094 226.133 62.0261 226.242 60.6341 226.242C59.3158 226.242 58.2316 226.036 56.91 226.449C56.1368 226.69 54.7522 226.482 54.3124 225.69C53.785 224.741 54.8334 224.329 54.8334 223.552C54.8334 222.9 54.7514 221.034 54.9714 222.794" stroke="#00ADB5" stroke-opacity="0.5" stroke-linecap="round" stroke-linejoin="round"/>
<path d="M70.6956 206.242C70.6956 206.242 71.2473 206.518 71.7991 207.07C72.3508 207.483 73.5121 207.277 74.4887 207.277C75.0025 207.277 75.5452 206.876 76.0059 206.671C76.9393 206.256 76.3826 207.037 76.1592 207.483C75.9119 207.978 76.1943 208.898 76.6419 209.208C77.3805 209.719 78.1111 209.278 78.8335 208.916C79.1333 208.766 79.051 208.697 79.1438 208.901C79.2697 209.178 79.2473 209.58 79.2473 209.882C79.2473 210.569 79.2021 211.712 78.8335 212.311C78.3485 213.099 77.8585 213.609 77.0787 214.188C76.3083 214.761 75.2905 215.759 74.2665 215.759C72.2654 215.759 70.1414 215.323 69.1401 213.376C68.7156 212.551 67.937 211.875 67.937 210.932C67.937 210.145 67.6766 209.201 67.937 208.449C68.2527 207.537 69.0405 206.671 68.7646 206.671C68.9053 206.711 70.1439 205.966 70.6956 206.242Z" stroke="#00ADB5" stroke-opacity="0.5" stroke-linecap="round" stroke-linejoin="round"/>
<path d="M72.9709 205.759C73.7469 205.472 75.5192 204.87 75.9364 203.932C76.2588 203.206 75.1931 203.07 74.626 203.07C73.9382 203.07 73.1232 204.02 72.9402 204.621C72.8385 204.956 72.7418 205.298 72.6414 205.637C72.593 205.8 72.6576 205.918 72.6912 206.07C72.7168 206.185 73.7691 205.632 73.7295 205.474" stroke="#00ADB5" stroke-opacity="0.5" stroke-linecap="round" stroke-linejoin="round"/>
<path d="M86.9081 221.273L56.3699 221.944C53.1394 222.015 50.5576 224.654 50.5576 227.885C50.5576 231.167 53.2183 233.828 56.5004 233.828H87.0399C90.3536 233.828 93.0399 231.142 93.0399 227.828V227.272C93.0399 223.906 90.2726 221.199 86.9081 221.273Z" stroke="#00ADB5" stroke-opacity="0.5"/>
<path d="M63.0586 221.777C63.5167 222.487 63.9122 223.34 64.4378 223.997C64.7022 224.327 64.6597 224.26 65.1723 224.07C66.0278 223.754 66.9972 223.981 67.8898 223.981C68.6735 223.981 69.5846 223.572 70.3463 223.777C71.2286 224.014 72.2688 223.561 73.1373 223.54C74.1838 223.515 75.1813 223.613 76.2221 223.613C76.8496 223.613 77.4612 223.246 78.042 223.246C78.3789 223.246 79.3393 223.513 79.3641 222.895C79.3761 222.594 79.5109 222.302 79.5109 221.998C79.5109 221.586 79.2646 221.764 78.8499 221.557" stroke="#00ADB5" stroke-opacity="0.5" stroke-linecap="round" stroke-linejoin="round"/>
<path d="M212.48 71.0062C213.046 70.2862 214.131 68.9538 212.611 68.7182C212.267 68.6649 211.945 68.4628 211.608 68.6157C210.568 69.0869 209.603 70.1242 209.603 71.3575C209.603 73.3273 211.763 73.7539 213.332 73.7284C215.98 73.6854 216.786 71.1055 217.721 69.0158C218.666 66.9048 219.715 64.8281 220.695 62.7323C221.804 60.3608 223.623 58.4716 224.774 56.1219C225.267 55.1143 225.912 54.227 226.547 53.307C227.532 51.8799 228.235 50.4401 228.94 48.8578C229.518 47.5595 230.159 46.374 230.868 45.1452C231.154 44.6483 231.046 43.8871 231.594 44.4183C232.01 44.8217 232.672 45.0867 233.231 45.1891C235.679 45.6372 237.929 46.1115 240.449 45.9112C242.998 45.7085 245.545 45.3433 248.054 44.8574C248.907 44.6922 248.543 44.8911 248.141 45.4087C247.459 46.2866 246.877 47.217 246.223 48.1065C245.371 49.2665 245.071 50.6636 244.566 51.9898C244.012 53.4476 243.352 54.8401 242.823 56.3219C241.799 59.1856 240.306 61.7972 238.458 64.2007C237.387 65.5936 236.065 68.0264 234.06 67.9279C230.957 67.7754 233.052 61.6678 234.535 60.4735C235.332 59.8306 236.205 60.5227 236.303 61.3858C236.436 62.5716 236.03 64.1967 234.878 64.7764C233.664 65.3879 232.733 65.3146 233.667 63.7372C234.233 62.7829 234.569 63.8332 234.801 63.3665" stroke="#00ADB5" stroke-opacity="0.5" stroke-width="2" stroke-linecap="round" stroke-linejoin="round"/>
<path d="M446.308 283.769C446.874 283.048 447.959 281.716 446.439 281.481C446.095 281.427 445.774 281.225 445.436 281.378C444.397 281.849 443.431 282.887 443.431 284.12C443.431 286.09 445.591 286.516 447.161 286.491C449.808 286.448 450.614 283.868 451.549 281.778C452.494 279.667 453.543 277.59 454.523 275.495C455.632 273.123 457.451 271.234 458.602 268.884C459.095 267.877 459.74 266.989 460.375 266.069C461.36 264.642 462.063 263.202 462.768 261.62C463.346 260.322 463.987 259.136 464.696 257.908C464.982 257.411 464.875 256.649 465.422 257.181C465.838 257.584 466.5 257.849 467.06 257.951C469.507 258.4 471.757 258.874 474.277 258.673C476.826 258.471 479.373 258.106 481.882 257.62C482.735 257.455 482.372 257.653 481.969 258.171C481.287 259.049 480.705 259.979 480.051 260.869C479.199 262.029 478.899 263.426 478.395 264.752C477.84 266.21 477.18 267.602 476.651 269.084C475.627 271.948 474.134 274.56 472.286 276.963C471.215 278.356 469.893 280.789 467.888 280.69C464.785 280.538 466.88 274.43 468.363 273.236C469.161 272.593 470.033 273.285 470.131 274.148C470.264 275.334 469.858 276.959 468.707 277.539C467.492 278.15 466.561 278.077 467.496 276.5C468.061 275.545 468.397 276.596 468.629 276.129" stroke="#00ADB5" stroke-opacity="0.5" stroke-width="2" stroke-linecap="round" stroke-linejoin="round"/>
<path d="M421.306 159.664C418.711 154.959 418.864 153.615 419.456 148.879C419.782 146.272 419.906 143.723 420.566 141.158C421.746 136.57 422.129 130.391 418.435 126.697C411.166 119.428 397.629 129.766 401.728 138.988C403.288 142.498 405.983 145.097 407.931 148.407C408.712 149.735 409.149 151.174 410.164 152.415C411.138 153.605 412.347 155.085 412.347 156.563C412.347 157.811 411.975 159.429 412.857 160.532C414.077 162.056 413.643 161.272 415.448 161.272C416.689 161.272 418.519 160.286 419.52 159.486C420.234 158.914 420.617 160.567 420.617 158.975C420.617 157.608 420.177 158.745 421.077 158.745" stroke="#00ADB5" stroke-opacity="0.5" stroke-linecap="round" stroke-linejoin="round"/>
<path d="M415.562 164.029C418.019 163.297 424.82 161.661 423.246 163.685C421.347 166.126 420.535 164.903 418.204 165.421C417.013 165.685 415.851 169.363 417.171 169.441C419.055 169.552 420.305 167.016 422.225 167.016C423.972 167.016 423.847 169.315 422.799 170.13C421.416 171.206 419.825 170.05 418.894 171.726C417.422 174.374 421.441 173.943 422.582 173.321C423.731 172.694 424.825 171.715 425.671 171.151" stroke="#00ADB5" stroke-opacity="0.5" stroke-linecap="round" stroke-linejoin="round"/>
<path d="M421.307 158.918C421.275 159.118 421.243 160.468 420.704 160.468C420.413 160.468 420.28 160.292 420.014 160.44C419.702 160.613 419.41 161.021 419.111 161.26C418.848 161.47 418.068 161.444 417.918 161.706C417.673 162.135 417.176 162.37 416.712 162.421C416.11 162.488 415.888 162.79 415.247 162.648C415.052 162.604 415.032 162.479 414.848 162.479C414.565 162.479 414.443 162.614 414.229 162.377C413.993 162.114 413.606 161.991 413.492 161.592C413.337 161.049 412.769 160.764 413.61 161.1" stroke="#00ADB5" stroke-opacity="0.5" stroke-linecap="round" stroke-linejoin="round"/>
<path d="M410.221 136.174C411.249 136.179 412.098 136.246 412.449 137.335C412.687 138.077 412.691 138.805 412.691 139.575C412.691 140.324 412.232 140.926 412.232 141.63C412.232 142.561 412.976 142.409 413.607 142.693C414.202 142.961 414.634 143.184 414.956 143.784C415.276 144.377 415.035 145.525 414.992 146.171C414.955 146.726 414.69 147.906 415.075 148.375C415.283 148.63 416.424 149.024 415.678 148.465" stroke="#00ADB5" stroke-opacity="0.5" stroke-linecap="round" stroke-linejoin="round"/>
<path d="M401.549 146.569C400.726 147.116 399.887 147.574 398.967 147.919C398.582 148.064 398.074 148.322 398.16 147.718" stroke="#00ADB5" stroke-opacity="0.5" stroke-linecap="round" stroke-linejoin="round"/>
<path d="M398.562 138.643C397.104 138.994 395.656 139.39 394.21 139.779C393.97 139.844 394.522 139.236 394.542 139.218" stroke="#00ADB5" stroke-opacity="0.5" stroke-linecap="round" stroke-linejoin="round"/>
<path d="M398.16 131.12C396.65 130.9 395.144 130.628 393.642 130.36C392.95 130.237 392.658 130.328 393.049 129.741" stroke="#00ADB5" stroke-opacity="0.5" stroke-linecap="round" stroke-linejoin="round"/>
<path d="M406.315 123.136C405.122 122.927 404.088 122.725 403.01 122.185C402.505 121.933 402.019 121.63 401.491 121.426C400.863 121.184 400.851 121.258 401.548 120.839" stroke="#00ADB5" stroke-opacity="0.5" stroke-linecap="round" stroke-linejoin="round"/>
<path d="M416.711 117.967C416.886 119.186 416.828 119.916 416.335 121.021C416.069 121.616 415.844 122.369 415.713 123.012C415.667 123.233 415.642 123.359 415.493 123.526C415.437 123.588 415.642 122.848 415.678 122.734" stroke="#00ADB5" stroke-opacity="0.5" stroke-linecap="round" stroke-linejoin="round"/>
<path d="M425.499 122.849C425.118 124.118 424.574 125.336 424.248 126.608C424.083 127.251 424.186 127.29 424.465 126.64" stroke="#00ADB5" stroke-opacity="0.5" stroke-linecap="round" stroke-linejoin="round"/>
<path d="M429.175 131.981C427.87 133.11 426.8 134.512 425.786 135.899C425.659 136.073 425.512 136.135 425.371 136.276C425.051 136.596 425.604 135.873 425.671 135.772" stroke="#00ADB5" stroke-opacity="0.5" stroke-linecap="round" stroke-linejoin="round"/>
<path d="M136.734 247.189C138.644 255.791 140.794 264.412 142.057 273.144C142.763 278.022 141.214 270.983 141.021 269.988C140.604 267.834 140.126 265.926 140.126 263.723C140.126 259.29 140.007 254.807 139.678 250.369C139.448 247.262 135.632 238.011 140.456 245.729C145.374 253.598 148.847 262.299 152.185 270.883C152.645 272.066 153.282 273.187 153.787 274.322C154.062 274.942 148.9 269.896 146.909 268.811" stroke="#00ADB5" stroke-opacity="0.5" stroke-width="2" stroke-linecap="round" stroke-linejoin="round"/>
<path d="M133.767 266.267C139.278 264.067 151.431 259.919 154.964 253.737C156.444 251.147 156.156 252.344 151.997 253.124" stroke="#00ADB5" stroke-opacity="0.5" stroke-width="2" stroke-linecap="round" stroke-linejoin="round"/>
<path d="M150.301 237.438C154.554 245.858 157.635 254.824 158.803 264.171C158.912 265.037 159.113 265.987 159.722 266.597C159.835 266.71 157.682 262.679 157.084 261.603" stroke="#00ADB5" stroke-opacity="0.5" stroke-width="2" stroke-linecap="round" stroke-linejoin="round"/>
<path d="M150.301 237.014C153.599 238.99 165.714 246.287 157.814 250.934C157.121 251.342 156.308 251.718 155.812 252.371C154.762 253.752 154.636 254.157 155.388 252.276" stroke="#00ADB5" stroke-opacity="0.5" stroke-width="2" stroke-linecap="round" stroke-linejoin="round"/>
<path d="M161.323 232.775C162.728 242.293 165.139 252.752 165.139 262.451C165.139 264.592 164.781 260.627 164.291 259.484" stroke="#00ADB5" stroke-opacity="0.5" stroke-width="2" stroke-linecap="round" stroke-linejoin="round"/>
<path d="M171.075 249.733C173.402 256.671 174.599 260.76 167.777 262.781C165.446 263.472 168.263 260.086 168.861 259.672C170.901 258.259 172.933 253.711 170.651 251.428C169.742 250.52 167.569 251.667 166.929 250.581C165.987 248.979 168.099 245.945 169.379 245.163C173.06 242.914 172.597 246.084 171.075 245.069" stroke="#00ADB5" stroke-opacity="0.5" stroke-width="2" stroke-linecap="round" stroke-linejoin="round"/>
<path d="M298.426 120.985C299.831 128.379 305.617 149.97 302.251 143.238C301.888 142.513 301.586 141.898 301.555 141.075C301.442 138.03 301.215 134.847 300.164 131.957C299.285 129.54 299.469 127.034 299.469 124.462C299.469 123.947 298.593 119.892 298.677 119.865C299.562 119.57 303.213 124.006 303.873 124.771C307.211 128.639 310.586 133.084 312.972 137.617C314.2 139.95 314.569 140.786 311.639 141.152" stroke="#00ADB5" stroke-opacity="0.5" stroke-width="2" stroke-linecap="round" stroke-linejoin="round"/>
<path d="M298.078 135.937C301.341 134.281 304.449 132.958 307.814 131.764" stroke="#00ADB5" stroke-opacity="0.5" stroke-width="2" stroke-linecap="round" stroke-linejoin="round"/>
<path d="M307.467 121.333C310.808 126.337 313.99 131.663 317.879 136.284C318.433 136.943 319.598 138.141 319.598 136.593C319.598 134.482 318.429 132.3 317.898 130.296C317.049 127.09 316.26 123.869 315.541 120.637C314.848 117.517 315.337 118.682 316.507 121.024C318.447 124.904 320.489 128.438 323.191 131.88C325.011 134.199 325.2 132.908 325.2 130.875C325.2 127.184 323.398 124.148 322.071 120.83C320.653 117.286 320.748 112.448 319.134 109.221C318.507 107.966 318.42 111.943 318.246 113.335" stroke="#00ADB5" stroke-opacity="0.5" stroke-width="2" stroke-linecap="round" stroke-linejoin="round"/>
<path d="M326.242 108.815C326.331 109.224 327.626 119.347 329.912 118.203C330.914 117.702 331.16 116.169 332.192 115.653C333.864 114.818 335.67 116.298 336.326 117.74C338.059 121.552 336.064 125.967 332.926 128.287C328.579 131.5 330.067 125.716 330.067 124.114" stroke="#00ADB5" stroke-opacity="0.5" stroke-width="2" stroke-linecap="round" stroke-linejoin="round"/>
<path d="M328.329 108.12C327.703 109.83 326.566 117.769 326.224 114.688C326.012 112.786 326.387 111.34 326.591 109.511C327.073 105.172 330.393 108.662 329.025 106.381" stroke="#00ADB5" stroke-opacity="0.5" stroke-width="2" stroke-linecap="round" stroke-linejoin="round"/>
<path d="M305.14 336.508C305.024 336.295 300.008 327.657 300.442 327.408C301.044 327.064 302.168 327.399 302.876 327.133C304.969 326.348 306.655 324.728 308.378 323.388C310.19 321.978 312.673 333.036 313.224 335.365C313.891 338.183 315.629 341.929 312.378 343.555C309.446 345.021 305.59 344.578 302.389 344.507C297.168 344.391 293.56 335.821 292.951 331.556C292.507 328.451 288.207 318.483 292.824 316.489C294.06 315.955 296.16 316.32 297.501 316.32C299.42 316.32 301.094 315.177 303.045 315.177C306.15 315.177 307.089 319.055 304.378 314.796" stroke="#00ADB5" stroke-opacity="0.5" stroke-width="2" stroke-linecap="round" stroke-linejoin="round"/>
<path d="M313.901 317.843C314.442 319.815 316.183 330.762 320.757 327.959C321.628 327.425 322.262 326.131 322.577 325.208C323.42 322.742 323.598 320.683 321.71 318.796C320.296 317.381 317.564 314.494 315.509 314.415C310.414 314.219 314.909 319.927 314.282 318.986" stroke="#00ADB5" stroke-opacity="0.5" stroke-width="2" stroke-linecap="round" stroke-linejoin="round"/>
<path d="M314.663 300.321C318.426 306.27 324.103 312.812 326.387 319.663C326.678 320.537 326.688 321.131 327.233 321.949C328.056 323.182 328.444 324.972 329.222 323.091C330.349 320.368 332.917 317.951 334.936 315.854C337.427 313.268 337.767 314.034 333.328 314.034" stroke="#00ADB5" stroke-opacity="0.5" stroke-width="2" stroke-linecap="round" stroke-linejoin="round"/>
<path d="M340.946 298.417C340.473 299.484 333.297 313.685 340.226 310.458C341.605 309.816 343.011 308.817 342.829 307.178C342.654 305.598 341.334 304.356 340.65 302.988C340.263 302.214 338.718 298.489 339.253 299.559C340.844 302.741 342.98 308.408 345.348 310.775C348.105 313.533 349.757 310.635 347.04 309.082" stroke="#00ADB5" stroke-opacity="0.5" stroke-width="2" stroke-linecap="round" stroke-linejoin="round"/>
<path d="M345.136 299.94C355.738 316.758 342.322 297.888 345.411 294.586C348.4 291.391 351.931 297.527 353.05 299.475C354.999 302.868 356.918 311.671 353.897 302.607" stroke="#00ADB5" stroke-opacity="0.5" stroke-width="2" stroke-linecap="round" stroke-linejoin="round"/>
<path d="M358.468 285.466C358.288 286.101 352.601 302.105 356.86 300.618C358.669 299.986 360.487 298.555 361.452 296.914C362.566 295.02 363.085 292.423 362.277 290.333C361.727 288.908 361.131 287.386 360.373 286.058C358.57 282.904 363.428 292.652 364.88 295.983C367.006 300.86 372.128 317.959 360.055 314.563C354.789 313.082 359.748 304.892 359.23 304.892" stroke="#00ADB5" stroke-opacity="0.5" stroke-width="2" stroke-linecap="round" stroke-linejoin="round"/>
<path d="M208.549 206.765C210.442 206.245 212.056 205.721 213.386 204.223C213.911 203.633 213.983 202.879 214.251 202.164C214.599 201.235 214.166 200.046 213.868 199.154C213.63 198.441 214.93 198.041 215.394 198.011C216.191 197.96 216.801 198.467 217.567 198.512C218.488 198.566 219.47 198.861 220.109 199.58C220.542 200.067 221.123 200.182 221.602 200.605C222.056 201.006 222.416 201.706 222.745 202.22C223.696 203.707 223.966 205.442 224.242 207.143C224.375 207.959 224.455 208.846 224.318 209.67C224.154 210.654 224.328 211.6 223.94 212.543C223.672 213.194 223.242 214.057 222.631 214.442C222.005 214.837 221.422 214.979 221.261 215.798C220.927 217.508 221.786 219.183 221.455 220.909C221.162 222.442 219.135 222.676 217.884 222.922C217.019 223.091 215.448 223.356 214.615 222.903C213.063 222.059 211.939 221.005 210.788 219.662C209.768 218.472 209.383 216.733 209.248 215.212C209.11 213.659 209.109 211.973 209.144 210.403C209.167 209.361 209.47 208.314 209.569 207.275C209.65 206.425 209.92 206.357 209.484 207.445" stroke="#00ADB5" stroke-opacity="0.5" stroke-linecap="round" stroke-linejoin="round"/>
<path d="M219.519 199.027C220.158 197.378 220.861 195.73 221.352 194.029C221.572 193.265 221.625 192.455 221.9 191.709C222.219 190.842 222.377 189.862 222.514 188.955C222.612 188.305 222.66 187.154 223.255 186.744C223.69 186.445 223.938 185.762 224.403 185.403C225.001 184.941 225.851 184.512 226.274 183.896C226.69 183.29 227.134 182.04 226.784 181.34C226.59 180.951 226.617 180.532 226.425 180.149C226.176 179.651 225.952 179.247 225.764 178.708C225.599 178.237 225.08 177.296 225.684 176.961C227.159 176.141 227.262 177.431 227.72 178.609C227.956 179.218 227.992 179.961 228.211 180.593C228.361 181.026 228.627 180.713 228.83 180.962C229.136 181.336 229.151 181.804 229.383 182.209C229.729 182.815 229.322 184.044 229.146 184.637C228.821 185.735 228.486 186.729 228.003 187.784C226.76 190.499 224.734 192.786 223.345 195.418C222.816 196.419 222.393 197.428 222.136 198.536C221.989 199.166 221.559 199.765 221.559 200.43C221.559 201.037 221.409 201.348 221.729 200.388" stroke="#00ADB5" stroke-opacity="0.5" stroke-linecap="round" stroke-linejoin="round"/>
<path d="M226.151 178.534C225.068 178.7 223.887 178.763 222.919 179.247C222.786 179.313 222.993 179.14 223.089 179.129C224.386 178.976 225.802 177.82 226.982 177.258C227.86 176.84 229.061 175.898 230.062 175.898C230.352 175.898 229.099 176.705 228.957 176.833" stroke="#00ADB5" stroke-opacity="0.5" stroke-linecap="round" stroke-linejoin="round"/>
<path d="M225.046 180.404C226.251 179.704 228.35 178.944 229.231 177.768C229.317 177.654 229.38 177.5 229.505 177.428C229.943 177.178 229.169 177.457 229.043 177.513" stroke="#00ADB5" stroke-opacity="0.5" stroke-linecap="round" stroke-linejoin="round"/>
<path d="M225.896 181.51C227.342 180.956 229.985 180.464 230.78 178.874C230.895 178.644 230.64 178.704 230.487 178.704" stroke="#00ADB5" stroke-opacity="0.5" stroke-linecap="round" stroke-linejoin="round"/>
<path d="M227.427 181.34C227.334 183.29 227.354 185.273 226.241 186.943C225.698 187.757 225.321 188.299 225.131 189.253C224.927 190.272 224.703 191.123 224.238 192.054C223.779 192.973 223.24 193.724 222.788 194.605C222.553 195.062 221.975 195.503 222.088 196.051C222.145 196.328 222.008 196.577 221.918 196.835C221.653 197.603 221.156 198.279 220.69 198.942C220.374 199.392 220.378 200.2 220.794 199.367" stroke="#00ADB5" stroke-opacity="0.5" stroke-linecap="round" stroke-linejoin="round"/>
<path d="M220.538 197.071C221.306 197.238 222.473 197.751 223.259 197.751C223.274 197.751 222.591 196.927 222.494 196.816" stroke="#00ADB5" stroke-opacity="0.5" stroke-linecap="round" stroke-linejoin="round"/>
<path d="M221.049 193.585C222.134 194.048 223.221 194.507 224.299 194.988C224.552 195.1 224.537 195.117 224.45 195.03C224.263 194.843 224.105 194.641 223.94 194.435" stroke="#00ADB5" stroke-opacity="0.5" stroke-linecap="round" stroke-linejoin="round"/>
<path d="M222.069 191.289C223.377 191.695 224.682 192.133 226.005 192.489C226.153 192.529 226.36 192.608 226.217 192.46C225.932 192.166 225.604 191.905 225.301 191.629" stroke="#00ADB5" stroke-opacity="0.5" stroke-linecap="round" stroke-linejoin="round"/>
<path d="M222.75 188.398C224.238 189.125 225.72 189.909 227.247 190.557C227.498 190.663 227.582 190.741 227.531 190.542C227.461 190.273 227.357 190.018 227.257 189.758" stroke="#00ADB5" stroke-opacity="0.5" stroke-linecap="round" stroke-linejoin="round"/>
<path d="M224.62 186.357C224.755 186.422 228.873 188.655 228.532 187.802" stroke="#00ADB5" stroke-opacity="0.5" stroke-linecap="round" stroke-linejoin="round"/>
<path d="M225.471 184.996C226.713 185.288 227.969 185.554 229.212 185.762" stroke="#00ADB5" stroke-opacity="0.5" stroke-linecap="round" stroke-linejoin="round"/>
<path d="M226.831 183.636C227.398 183.663 227.965 183.691 228.532 183.721" stroke="#00ADB5" stroke-opacity="0.5" stroke-linecap="round" stroke-linejoin="round"/>
<path d="M215.607 209.146C215.016 209.381 211.377 210.286 211.355 211.291C211.347 211.684 211.356 212.077 211.403 212.467C211.549 213.678 212.392 214.312 213.425 214.891C214.738 215.626 216.151 215.649 217.582 215.231C218.942 214.833 219.826 213.329 219.282 212.037C219.17 211.769 219.56 211.715 219.306 211.404C219.059 211.102 218.896 211.277 218.498 211.357" stroke="#00ADB5" stroke-opacity="0.5" stroke-linecap="round" stroke-linejoin="round"/>
<path d="M213.821 212.292C214.498 210.58 215.342 208.87 215.735 207.063C215.837 206.589 215.964 206.191 216.221 205.764C216.763 204.86 217.241 203.895 217.563 202.891C217.868 201.938 217.888 200.998 218.29 200.066C218.434 199.734 219.291 198.737 218.923 199.197" stroke="#00ADB5" stroke-opacity="0.5" stroke-linecap="round" stroke-linejoin="round"/>
<path d="M220.539 200.047C220.224 202.017 219.749 203.902 219.415 205.849C219.229 206.928 218.923 207.83 218.923 208.967C218.923 209.779 219.214 210.457 219.027 211.272C218.813 212.211 218.62 211.748 218.243 211.102" stroke="#00ADB5" stroke-opacity="0.5" stroke-linecap="round" stroke-linejoin="round"/>
<path d="M219.688 200.047C219.097 201.277 217.817 203.299 217.817 204.852C217.817 205.735 217.874 206.672 217.813 207.568C217.739 208.634 216.907 210.015 216.41 210.932C216.244 211.236 216.029 211.471 215.928 211.801C215.801 212.213 215.891 212.238 215.606 211.782" stroke="#00ADB5" stroke-opacity="0.5" stroke-linecap="round" stroke-linejoin="round"/>
<path d="M213.566 210.507C215.015 211.543 217.571 213.657 219.349 211.829C219.626 211.544 220.026 210.936 220.18 210.573C220.39 210.076 219.71 210.498 219.264 210.592" stroke="#00ADB5" stroke-opacity="0.5" stroke-linecap="round" stroke-linejoin="round"/>
<path d="M215.267 208.976C216.092 208.95 217.762 209.173 218.564 208.759C218.591 208.745 218.502 208.768 218.479 208.787C218.4 208.85 218.236 208.747 218.158 208.721" stroke="#00ADB5" stroke-opacity="0.5" stroke-linecap="round" stroke-linejoin="round"/>
<path d="M216.202 205.83C216.808 205.99 219.002 206.924 219.093 205.915" stroke="#00ADB5" stroke-opacity="0.5" stroke-linecap="round" stroke-linejoin="round"/>
<path d="M217.223 203.279C217.974 203.769 221.023 206.04 220.539 203.619" stroke="#00ADB5" stroke-opacity="0.5" stroke-linecap="round" stroke-linejoin="round"/>
<path d="M218.072 202.088C218.838 202.287 219.603 202.485 220.368 202.683" stroke="#00ADB5" stroke-opacity="0.5" stroke-linecap="round" stroke-linejoin="round"/>
<path d="M221.815 202.088C222.761 202.98 224.65 205.054 224.706 206.614C224.751 207.886 224.706 209.116 224.706 210.403C224.706 211.339 224.884 212.338 224.791 213.228C224.668 214.396 222.874 214.411 223.303 215.784C223.446 216.242 223.321 216.513 223.723 216.842C224.07 217.126 224.322 217.455 224.451 217.905C224.751 218.955 224.153 219.903 223.43 220.626C222.978 221.078 222.391 221.987 221.857 222.284C221.593 222.431 221.054 222.326 220.752 222.326C220.471 222.326 219.905 222.509 219.651 222.624C219.278 222.794 218.802 222.494 218.328 222.667" stroke="#00ADB5" stroke-opacity="0.5" stroke-linecap="round" stroke-linejoin="round"/>
<path d="M208.549 207.02C208.892 208.159 209.147 209.106 209.72 210.081C209.956 210.482 209.924 210.846 209.82 211.314C209.699 211.859 209.301 213.136 209.612 213.695C210.089 214.555 210.079 215.465 210.079 216.417C210.079 217.334 211.513 217.732 211.983 218.202C212.682 218.901 212.379 219.792 213.528 220.097C213.779 220.163 214.172 220.167 214.369 220.328C214.518 220.45 214.693 220.755 214.889 220.791C215.293 220.865 215.836 220.784 216.202 220.947C216.508 221.083 216.731 221.279 217.01 221.434C217.317 221.604 217.738 221.412 218.073 221.58C219.216 222.152 218.705 221.608 217.903 220.966" stroke="#00ADB5" stroke-opacity="0.5" stroke-linecap="round" stroke-linejoin="round"/>
<path d="M123.926 164.311C121.654 167.219 111.898 178.853 120.211 181.486C122.791 182.303 126.149 180.424 128.93 180.696C132.861 181.079 135.072 184.422 136.039 187.893C137.153 191.89 131.007 198.998 133.962 201.147C139.022 204.827 146.311 198.604 150.492 203.546C152.863 206.347 150.37 210.417 151.838 203.809" stroke="#00ADB5" stroke-opacity="0.5" stroke-linecap="round" stroke-linejoin="round"/>
<path d="M238.041 119.02C240.231 121.922 245.443 128.459 247.403 132.186C249.072 135.359 246.969 135.232 245.18 133.971C243.04 132.464 243.34 129.258 243.951 127.037C246.013 119.541 259.355 112.649 260.862 124.17C261.391 128.217 257.774 135.021 252.845 133.415C246.339 131.295 246.754 121.365 251.675 117.675C256.709 113.899 264.958 118.237 264.958 124.404C264.958 131.25 256.821 133.37 253.665 127.33C250.796 121.84 255.879 116.097 261.33 115.275C263.335 114.973 268.514 117.289 264.9 118.494" stroke="#00ADB5" stroke-opacity="0.5" stroke-linecap="round" stroke-linejoin="round"/>
<path d="M348.109 171.158C344.698 174.546 333.921 182.447 342.988 185.523C348.264 187.313 353.149 184.379 356.418 180.374C360.025 175.955 360.637 168.966 354.896 166.096C350.432 163.864 346.584 160.278 342.842 165.891" stroke="#00ADB5" stroke-opacity="0.5" stroke-linecap="round" stroke-linejoin="round"/>
<path d="M464.497 217.502C457.985 221.381 448.097 226.066 458.177 229.732C459.727 230.295 460.735 229.928 462.098 228.971C467.137 225.43 467.433 224.012 467.13 218.555C466.929 214.942 461.646 215.768 459.231 216.975C455.668 218.756 453.183 222.321 451.741 225.928C449.799 230.782 459.836 230.485 461.22 224.641C462.088 220.977 457.897 215.773 455.017 220.252C451.202 226.187 457.024 231.494 460.693 225.285C464.208 219.337 455.996 216.884 453.789 223.822C450.886 232.944 468.14 223.039 461.864 219.901C458.123 218.031 451.806 229.908 458.704 226.952C467.079 223.363 457.709 218.073 457.709 226.455C457.709 233.257 468.959 223.386 461.63 220.72C459.954 220.111 458.3 225.466 459.494 226.66C461.57 228.736 465.179 223.359 464.994 221.423C464.203 213.112 456.067 234.241 465.755 224.553C467.968 222.34 467.877 218.34 464.204 220.691C462.037 222.078 460.665 227.966 464.76 226.601C468.692 225.29 468.692 218.007 464.468 219.696C461.889 220.728 460.956 224.377 458.177 223.822" stroke="#00ADB5" stroke-opacity="0.5" stroke-linecap="round" stroke-linejoin="round"/>
<path d="M407.62 271.746C406.533 272.946 389.18 294.357 397.906 283.449C399.902 280.954 401.735 278.5 404.46 276.749C406.139 275.669 407.757 275.003 409.199 273.56C410.776 271.983 408.541 272.087 408.175 275.374C407.857 278.236 408.101 290.733 407.62 290.705C404.366 290.514 402.234 287.312 399.223 286.258C397.609 285.693 392.826 286.506 394.161 285.438C397.423 282.829 407.413 275.346 404.46 278.3C402.222 280.537 397.623 288.947 399.193 286.199C400.31 284.245 403.329 277.879 402.88 278.943C401.954 281.136 400.342 284.893 400.481 287.311C400.612 289.606 405.17 283.958 405.454 283.39C407.568 279.164 403.195 288.668 404.752 286.404C406.155 284.364 410.895 279.179 407.502 284.268C406.76 285.382 411.017 280.244 410.253 281.342C410.031 281.661 408.101 284.898 409.229 283.771C413.266 279.733 407.317 283.931 406.566 282.805" stroke="#00ADB5" stroke-opacity="0.5" stroke-linecap="round" stroke-linejoin="round"/>
<path d="M372.334 359.168C374.178 356.543 384.712 344.961 376.05 344.451C374.586 344.365 371.567 343.89 370.345 344.89C367.438 347.269 368.698 353.685 372.627 354.399C377.837 355.346 382.719 348.222 377.074 345.475C371.176 342.606 357.255 354.131 363.264 358.875C375.097 368.217 385.798 341.07 370.491 344.978C356.608 348.523 368.839 362.823 375.143 353.609C381.893 343.744 361.079 343.659 364.757 354.692C366.57 360.133 372.523 357.507 373.592 353.112C375.16 346.668 368.752 349.329 368.648 353.785C368.537 358.56 375.894 349.92 371.486 350.303C368.3 350.58 367.986 354.955 365.488 354.955" stroke="#00ADB5" stroke-opacity="0.5" stroke-linecap="round" stroke-linejoin="round"/>
<path d="M162.732 309.664C163.795 314.489 165.892 329.088 165.892 324.146C165.892 320.735 163.286 317.552 162.761 314.14C162.578 312.948 162.956 309.422 161.942 308.611C161.248 308.056 167.806 313.16 169.549 314.14C172.729 315.929 175.009 319.271 177.77 315.72C179.096 314.016 182.997 313.78 183.534 313.35C187.434 310.231 187.076 305.575 187.981 301.501C188.304 300.048 187.484 306.462 187.484 308.347C187.484 310.759 187.919 313.953 188.566 316.218C189.485 319.434 189.117 310.357 188.245 308.611C186.826 305.774 186.957 303.257 186.957 300.184C186.957 298.971 195.761 314.179 194.213 315.34C193.566 315.825 184.945 313.447 182.334 314.287C180.086 315.01 178.031 315.853 175.898 316.92C175.315 317.211 174.352 318.273 174.727 317.973C176.064 316.903 180.155 313.979 178.531 314.521C176.3 315.265 174.108 317.424 172.094 318.617C168.299 320.866 167.071 320.552 165.482 324.41C165.253 324.966 168.086 324.895 168.642 325.053C172.628 326.192 175.132 323.088 178.648 321.66C183.186 319.816 188.404 316.03 193.277 315.457C196.956 315.024 191.362 313.734 191.17 313.35" stroke="#00ADB5" stroke-opacity="0.5" stroke-linecap="round" stroke-linejoin="round"/>
<path d="M363.908 106.908C373.833 103.726 389.908 100.067 398.783 92.8056C400.393 91.488 402.887 90.225 402.323 87.6855C400.203 78.1455 395.59 75.9081 386.495 76.9187C381.45 77.4792 376.608 82.1327 371.924 84.0283C367.103 85.9798 362.279 88.5438 357.881 91.3427C353.429 94.1756 356.008 95.5788 356.008 100.471C356.008 103.161 357.615 106.908 360.485 106.908C361.792 106.908 365.542 105.855 361.83 105.855C358.918 105.855 354.397 106.296 351.795 104.918C349.808 103.866 353.73 101.795 354.662 101.671C357.991 101.227 350.848 104.483 350.127 104.714C348.645 105.188 355.476 100.011 351.678 101.232C347.561 102.555 353.671 99.0065 354.955 98.3646C356.404 97.6401 355.14 98.7871 355.482 98.1891C356.028 97.2321 359.193 93.7164 356.33 96.5799C355.371 97.5385 358.494 94.9448 359.548 94.093C361.535 92.4886 359.015 94.9228 358.524 95.3218C356.265 97.1605 355.736 95.6768 353.902 96.4921C353.135 96.8329 351.268 97.9632 351.268 96.6384C351.268 94.3527 359.333 93.3114 360.806 93.2445C369.827 92.8345 376.14 88.8553 384.447 86.7785C388.444 85.7792 392.813 84.3398 396.559 82.5654C399.338 81.2494 404.903 77.1292 407.853 77.972C409.012 78.3031 391.129 88.7084 396.267 85.3156C400.517 82.5091 405.391 80.5384 399.017 85.813C393.911 90.0386 402.894 85.1167 403.611 85.4034C404.898 85.9186 395.681 91.1831 402.704 87.9488C405.389 86.7119 407.619 86.6508 407.619 83.7357C407.619 79.7787 408.701 75.0887 403.669 76.9187C397.862 79.0303 393.201 83.5438 387.197 85.3156C383.058 86.5371 379.025 88.0795 374.967 89.5288C370.258 91.2104 361.735 93.0909 358.378 97.1943C356.589 99.3812 353.402 107.904 359.987 104.216C366.028 100.833 366.99 93.9889 370.227 88.5925C371.836 85.9121 367.425 94.2538 366.775 97.3113C366.028 100.828 369.337 104.875 373.124 104.216C377.278 103.494 381.647 97.7573 383.13 94.2685C390.257 77.4999 377.33 93.7638 380.994 97.4284C384.883 101.317 390.81 91.0152 391.586 88.4755C392.521 85.4154 393.07 81.6434 394.19 78.7327C395.642 74.9575 386.371 79.2093 385.5 79.6396C380.678 82.0227 377.312 85.2016 374.031 89.4117C372.843 90.9357 368.077 98.1088 371.339 99.7397C375.711 101.925 381.078 95.1317 381.199 91.6061C381.611 79.6631 371.778 85.7839 365.839 90.465C362.169 93.3576 365.357 99.1388 366.014 98.4816" stroke="#00ADB5" stroke-opacity="0.5" stroke-linecap="round" stroke-linejoin="round"/>
<path d="M230.669 392.346C230.44 392.529 221.775 400.003 221.775 397.876C221.775 396.63 222.734 395.296 223.589 394.482C225.279 392.872 231.955 391.633 230.347 395.565C229.268 398.201 224.861 402.087 223.618 397.115C223.102 395.051 226.645 390.908 228.796 392.668C231.169 394.609 226.068 397.082 224.466 396.208C221.604 394.647 225.041 389.09 227.802 390.24C230.689 391.443 226.718 394.731 225.403 395.389C222.327 396.927 222.757 394.441 221.189 392.873" stroke="#00ADB5" stroke-opacity="0.5" stroke-linecap="round" stroke-linejoin="round"/>
<path d="M87.9496 391.82C90.9854 396.822 96.7673 402.013 90.8754 406.566C89.3557 407.74 80.3907 412.435 80.9278 406.975C81.5818 400.326 91.4907 400.178 92.1042 394.219C92.7109 388.325 78.6356 390.546 75.4273 386.553C73.4175 384.052 71.7966 378.51 72.2675 375.318C72.4509 374.075 75.6025 371.663 75.281 373.914C74.6924 378.034 61.4074 388.588 69.2832 392.054C74.5636 394.377 75.9258 388.495 79.816 387.08C87.829 384.166 75.8369 405.777 75.8369 400.246" stroke="#00ADB5" stroke-opacity="0.5" stroke-linecap="round" stroke-linejoin="round"/>
<path d="M346.002 460.283C343.563 466.054 338.629 483.84 338.629 477.574C338.629 476.597 338.818 475.825 339.156 474.912C340.741 470.621 342.577 466.628 345.241 462.857C346.696 460.799 348.429 454.772 350.508 459.346C351.478 461.48 354.253 467.422 353.082 469.762C351.614 472.7 347.054 474.385 344.013 474.502C343.22 474.532 334.913 475.624 337.605 473.156C340.769 470.256 343.83 461.436 348.606 460.839C349.343 460.746 350.884 461.239 351.532 461.599C352.673 462.233 351.283 463.378 350.742 464.262C350.093 465.322 344.959 472.483 344.949 472.161C344.803 467.362 349.727 460.395 352.38 456.772C353.332 455.472 348.269 464.291 347.114 466.281C346.22 467.82 347.386 471.092 343.369 470.289" stroke="#00ADB5" stroke-opacity="0.5" stroke-linecap="round" stroke-linejoin="round"/>
<path d="M182.744 36.8648C180.395 46.0569 178.301 54.8151 177.449 64.1915C177.363 65.1294 176.771 65.7358 177.361 66.4736C178.239 67.5717 180.563 60.5897 181.457 58.7203C184.291 52.7949 187.484 50.4566 187.484 43.1844C187.484 42.1351 187.484 36.0956 187.484 40.0831C187.484 43.4685 188.126 46.8144 187.894 50.2063C187.718 52.77 185.257 59.6889 187.074 57.8718C189.879 55.0672 187.632 41.0049 183.242 40.639C177.249 40.1396 174.359 53.129 173.674 57.1696C172.878 61.8708 176.192 63.839 179.848 60.1832C184.838 55.1934 185.92 44.9347 181.632 39.0884C175.742 31.0564 171.877 45.5488 171.392 49.0945C170.295 57.1151 174.775 59.6853 180.082 53.9806C182.034 51.8824 185.969 48.2543 185.143 44.9984C184.045 40.6676 177.644 44.8731 176.366 46.7539C174.554 49.4209 174.577 56.064 177.507 57.9596C180.242 59.7295 182.904 52.3957 182.598 50.5574C181.299 42.7611 166.603 55.1374 173.908 59.5688C180.267 63.4256 184.482 46.1709 176.659 48.3046C174.48 48.8987 169.306 54.7705 173.791 54.7705" stroke="#00ADB5" stroke-opacity="0.5" stroke-linecap="round" stroke-linejoin="round"/>
<path d="M43.1844 186.957C40.8179 193.662 39.1142 197.942 33.1198 201.703C31.6147 202.647 29.6257 204.318 29.3163 206.209C28.6552 210.249 35.0278 214.701 38.6495 213.494C46.2807 210.95 34.733 203.397 33.5001 201.205C31.3535 197.389 39.1119 190.534 42.687 192.545C45.4699 194.111 46.7036 199.566 45.0569 202.229C42.6581 206.11 37.5021 206.263 33.4709 205.653C30.2604 205.166 23.8296 205.828 25.7176 210.597C28.08 216.565 39.2299 213.437 40.9023 208.374C42.5306 203.444 33.7155 201.586 35.6067 196.963C36.9057 193.788 41.0073 189.824 44.6473 189.824C49.0074 189.824 44.6532 197.969 44.0036 199.245C41.1353 204.883 36.7467 205.445 31.1888 206.969C20.7281 209.837 31.9973 210.241 32.6516 206.969" stroke="#00ADB5" stroke-opacity="0.5" stroke-linecap="round" stroke-linejoin="round"/>
<path d="M30.5454 259.106C29.4275 263.316 26.1222 270.5 26.4494 275.081C26.6027 277.228 27.189 270.84 27.4441 268.703C27.9302 264.632 28.4863 260.034 30.6625 256.473C31.0487 255.841 39.9807 266.991 40.7857 268.82C42.94 273.716 40.2428 272.784 36.8651 274.379C34.9878 275.266 22.1777 279.787 22.1777 278.592C22.1777 277.34 24.5927 274.794 25.162 273.735C26.9439 270.42 28.8556 266.258 29.6092 262.559C31.2186 254.658 30.0188 270.917 30.0188 272.155C30.0188 272.907 30.3109 277.305 28.5559 277.305C26.3595 277.305 30.0408 273.171 30.7795 271.102C31.5629 268.909 34.6812 262.444 33.9101 260.131C32.818 256.854 32.2716 266.89 32.1546 270.341C32.0753 272.681 30.9433 276.586 32.769 272.799C33.3508 271.592 35.2288 266.645 35.1974 267.006C34.9327 270.051 33.7053 273.19 33.7053 276.252C33.7053 279.385 35.3583 269.298 38.211 268.001C38.9203 267.678 37.9184 273.625 37.9184 274.496C37.9184 276.081 39.4398 268.405 39.4398 269.99C39.4398 270.432 38.8086 273.103 38.328 272.272C36.3585 268.871 34.8767 266.768 30.838 265.543C28.9987 264.985 23.1521 265.368 25.0743 265.368C26.3377 265.368 28.322 260.971 29.7262 262.12C31.5893 263.644 29.0324 268.51 28.4389 270.166C27.467 272.877 26.8586 269.064 29.2581 269.347C31.7583 269.641 29.2075 278.873 30.604 276.778C31.2521 275.806 33.2153 271.01 33.1494 271.57C31.8746 282.406 32.1398 268.608 34.2319 271.746" stroke="#00ADB5" stroke-opacity="0.5" stroke-linecap="round" stroke-linejoin="round"/>
<path d="M291.232 115.861C297.932 115.53 304.403 118.007 303.344 110.068C302.82 106.134 300.615 99.7022 301.764 95.8484C302.985 91.757 310.476 82.5299 304.076 79.6396C298.709 77.2159 291.695 84.0698 290.705 88.7095C290.293 90.6392 290.381 96.6676 293.572 96.6676C295.984 96.6676 297.524 94.2999 299.629 96.4043C302.38 99.1553 302.871 101.665 300.916 105.123C296.224 113.424 277.661 104.152 287.662 94.1514C289.033 92.7807 294.455 86.494 297.025 88.2999C300.56 90.7844 300.082 97.2529 298.254 100.471C296.43 103.68 289.738 107.041 287.106 102.929C285.806 100.897 286.428 99.5349 288.598 99.5349" stroke="#00ADB5" stroke-opacity="0.5" stroke-linecap="round" stroke-linejoin="round"/>
<path d="M347.337 165.146C347.955 164.896 367.221 155.385 366.325 160.611C365.844 163.415 366.165 166.031 366.559 168.832C366.71 169.904 369.322 178.253 366.706 178.253C361.831 178.253 357.074 175.805 352.194 176.732C350.171 177.116 346.141 178.502 345.991 175.269C345.878 172.844 343.864 161.945 348.654 163.01C352.601 163.887 352.773 160.754 349.97 167.72C349.572 168.709 346.957 176.14 347.395 175.795C351.776 172.353 354.179 165.735 358.192 161.722C360.697 159.217 356.402 169.273 355.88 170.529C353.214 176.947 360.029 165.09 360.796 163.917C364.163 158.766 361.606 167.987 361.088 169.505C359.53 174.068 364.319 165.548 366.237 164.414C372.593 160.658 366.588 173.63 365.243 170.939" stroke="#00ADB5" stroke-opacity="0.5" stroke-linecap="round" stroke-linejoin="round"/>
<path d="M295.445 264.373C295.748 272.114 295.613 276.337 302.175 271.453C304.037 270.068 303.246 273.346 302.789 274.145C302.027 275.48 297.555 282.189 302.058 279.616C303.197 278.965 306.271 277.665 306.271 280.172C306.271 280.568 304.893 285.412 306.242 284.063C308.452 281.853 308.492 273.521 308.611 270.283C308.638 269.576 308.947 268.754 308.319 269.113C305.091 270.957 303.558 280.615 301.882 284.385C300.436 287.64 296.265 283.805 293.866 282.279C289.318 279.385 292.178 281.44 292.286 281.225" stroke="#00ADB5" stroke-opacity="0.5" stroke-linecap="round" stroke-linejoin="round"/>
<path d="M259.107 333.363C259.087 333.608 258.469 348.726 258.58 341.379C258.614 339.137 258.549 336.893 258.58 334.65C258.667 328.281 259.804 331.236 262.559 333.86C263.822 335.063 268.457 337.66 267.709 340.092C267.488 340.809 260.048 342.104 258.873 342.55C257.991 342.884 252.787 346.161 252.787 346.002C252.787 342.089 254.165 337.854 254.63 333.948C255.615 325.677 261.338 347.818 261.711 342.228C261.798 340.912 261.74 333.077 261.74 335.031C261.74 336.485 262.793 344.241 262.793 339.156C262.793 338.005 262.793 336.854 262.793 335.703C262.793 335.161 263.089 337.758 263.291 337.254C264.02 335.43 262.793 331.762 262.793 336.23C262.793 341.246 261.387 337.634 258.317 337.634C255.69 337.634 254.186 347.26 255.537 345.007C256.721 343.035 254.389 335.002 255.42 339.127C255.96 341.286 257.257 338.899 258.054 338.103" stroke="#00ADB5" stroke-opacity="0.5" stroke-linecap="round" stroke-linejoin="round"/>
</svg>
