<svg width="272" height="137" viewBox="0 0 272 137" fill="none" xmlns="http://www.w3.org/2000/svg">
<path d="M174.957 69.6978C174.188 66.464 173.365 64.2501 172.45 62.7671C172.479 64.5925 172.44 66.2458 172.37 67.601C172.029 74.3562 152.477 86.1279 150.438 85.6703C140.357 80.5152 131.03 74.6719 123.819 68.5412C121.545 70.7054 119.656 73.5455 118.304 77.2494C126.448 86.4331 133.199 93.7718 133.199 93.7718C131.862 94.4605 130.362 94.7744 128.86 94.68C128.81 94.6891 128.759 94.695 128.709 94.6978C125.697 94.8273 119.321 92.601 116.137 91.4072L115.693 110.933C117.294 109.586 119.585 108.494 122.73 108.804C122.871 108.818 123.002 108.887 123.092 108.996C123.183 109.106 123.226 109.247 123.212 109.388C123.198 109.529 123.129 109.659 123.019 109.749C122.909 109.839 122.768 109.882 122.627 109.868C119.311 109.546 117.071 110.933 115.661 112.387L115.643 113.132C117.521 111.731 120.403 110.498 124.149 111.612C124.285 111.653 124.399 111.745 124.466 111.869C124.533 111.994 124.548 112.139 124.508 112.275C124.467 112.41 124.375 112.524 124.25 112.591C124.125 112.658 123.979 112.673 123.843 112.632C120.042 111.5 117.262 113.033 115.661 114.45C116.477 115.962 116.765 117.961 115.872 120.551C117.934 118.777 119.925 117.381 120.919 117.638C123.32 118.259 124.964 121.101 120.741 124.725C119.889 125.454 118.975 126.171 118.051 126.854C120.848 125.484 123.489 124.514 124.537 125.209C127.028 126.863 125.427 131.98 119.633 133.614C117.637 134.177 116.239 134.645 115.186 135.003V135.589H144.829L144.15 112.386L145.51 111.332L148.743 135.581L182.348 136L174.957 69.6978Z" fill="white"/>
<path d="M52.8719 92.9414C52.3382 93.266 51.7245 92.6185 51.8206 91.3448C51.9166 90.0711 58.0752 84.4088 58.0752 84.4088L58.6747 83.8039C58.6747 83.8039 58.7263 84.0345 55.6505 82.814C52.5748 81.5936 53.6101 78.475 55.2823 79.6209C56.9545 80.7669 60.74 80.9798 60.74 80.9798L71.0878 81.3009C76.8052 84.1391 73.1603 92.4464 73.1603 92.4464L64.8617 92.7604" stroke="white" stroke-width="1.07019" stroke-linecap="round" stroke-linejoin="round"/>
<path d="M57.0441 88.6963C56.8449 88.8045 49.2881 95.2456 52.9526 96.9167" stroke="white" stroke-width="1.07019" stroke-linecap="round" stroke-linejoin="round"/>
<path d="M58.2801 90.6956C58.2801 90.6956 52.7833 95.8967 52.9327 97.362C53.0821 98.8272 53.9413 99.2831 55.5548 97.103" stroke="white" stroke-width="1.07019" stroke-linecap="round" stroke-linejoin="round"/>
<path d="M60.0365 92.3399C60.0365 92.3399 55.4416 95.533 54.9453 98.8485C55.7209 100.759 60.1717 96.6133 61.0558 95.2669C61.0558 95.2669 63.3809 95.0044 65.7895 91.304" stroke="white" stroke-width="1.07019" stroke-linecap="round" stroke-linejoin="round"/>
<path d="M113.569 56.8066C106.733 48.4957 107.651 19.6907 107.651 19.6907C107.651 19.6907 106.437 19.9692 104.013 20.6273C103.648 20.7538 103.301 20.9286 102.983 21.1471L103.408 21.195C103.408 21.195 101.499 30.3644 102.613 42.1273C102.613 42.1273 95.8316 41.6466 88.5933 37.116C87.8106 41.6359 96.7353 51.8396 100.249 56.5706C103.762 61.3017 125.984 87.2773 128.741 88.716C131.499 90.1546 144.976 82.6846 144.976 82.6846C133.317 77.1996 120.407 65.1174 113.569 56.8066Z" fill="white"/>
<path d="M75.9985 30.5757C75.9238 35.069 79.9797 39.3832 82.7281 42.1062C81.1128 45.1325 77.9464 55.8151 81.8902 75.7381C78.1545 75.7381 75.182 75.7913 74.2658 75.9669C71.183 76.5594 72.1721 78.8425 69.9235 79.552C67.675 80.2616 66.9492 80.5366 66.9492 80.5366C66.9492 80.5366 70.5711 87.7281 68.1945 92.5407C68.1945 92.5407 68.9647 93.1421 71.2435 93.7559C73.5223 94.3697 72.631 96.6935 75.7352 97.1529C77.6546 97.4385 91.7987 97.3977 102.328 97.3303C103.466 97.3224 104.591 97.0812 105.631 96.6217C106.672 96.1622 107.607 95.4942 108.378 94.6593C109.149 93.8244 109.74 92.8403 110.113 91.7682C110.487 90.6961 110.636 89.5588 110.55 88.427L110.579 88.4376L110.534 88.2336C110.47 87.6241 110.339 87.0234 110.145 86.442L109.433 83.2134C109.433 83.2134 112.373 87.9729 112.964 89.2146C113.555 90.4564 114.903 90.9407 115.91 91.3203C119.011 92.4928 125.617 94.8273 128.7 94.6907C128.751 94.688 128.801 94.682 128.851 94.673C130.353 94.7673 131.853 94.4534 133.19 93.7647" stroke="white" stroke-width="1.07019" stroke-linecap="round" stroke-linejoin="round"/>
<path d="M182.846 40.8271C181.632 37.909 176.454 28.6845 164.865 31.1468C162.659 31.6198 160.59 32.1567 158.658 32.7575C149.774 24.3934 136.657 13.6416 128.603 14.2927C124.71 14.6342 120.857 15.3343 117.094 16.3841C113.036 8.75625 105.353 4.54849 95.1191 9.75142" stroke="white" stroke-width="1.07019" stroke-linecap="round" stroke-linejoin="round"/>
<path d="M150.438 85.6703C152.039 86.0251 164.562 78.7768 169.936 72.3818" stroke="white" stroke-width="1.07019" stroke-linecap="round" stroke-linejoin="round"/>
<path d="M70.8584 93.6104C68.4018 93.0285 67.5746 92.4414 67.5746 92.4414C70.1842 87.6748 66.3418 80.6217 66.3418 80.6217C66.3418 80.6217 67.1263 80.3396 69.5652 79.6177C70.5471 79.3267 70.9652 78.7892 71.3298 78.2109C76.985 83.0431 74.9072 92.7767 73.9021 96.3245C72.6053 95.4801 72.7209 94.0521 70.8584 93.6104Z" fill="white"/>
<path d="M83.0322 41.6555C81.8645 43.9177 81.1177 46.3723 80.8281 48.9002C84.329 49.3952 87.5186 48.4922 89.4683 47.1263C89.1676 46.9702 85.6258 44.6872 83.0322 41.6555Z" fill="white"/>
<path d="M116.582 16.567C120.618 24.4397 119.596 32.0179 117.148 37.306C124.591 37.0186 132.297 14.2946 129.129 14.2644C126.551 14.2414 119.878 15.7545 117.47 16.3204C117.477 16.3328 116.575 16.5528 116.582 16.567Z" fill="white"/>
<path d="M179.11 50.5339C180.498 49.3365 180.249 48.5933 179.891 48.2136C179.423 47.7213 179.001 47.1869 178.632 46.6171L177.808 45.331H171.964C171.964 45.331 173.782 40.1192 177.835 39.9454C178.093 39.9347 179.482 40.1103 181.334 40.4917C179.861 37.8628 176.935 36.0693 173.564 36.0693C168.713 36.0693 164.781 39.7768 164.781 44.35C164.781 48.9232 168.713 52.6325 173.564 52.6325C175.277 52.6373 176.958 52.1595 178.411 51.2542C178.619 50.9909 178.853 50.7495 179.11 50.5339Z" fill="white"/>
<path d="M95.3338 17.8635L99.2296 20.7195L103.408 21.1914C103.408 21.1914 101.499 30.3608 102.613 42.1238C102.613 42.1238 95.8924 41.6466 88.6914 37.1745" stroke="white" stroke-width="1.07019" stroke-linecap="round" stroke-linejoin="round"/>
<path d="M89.832 10.1203C89.832 10.1203 93.1301 6.92726 95.4818 10.39C97.0597 12.7262 95.1936 14.3689 93.8025 15.192" stroke="white" stroke-width="1.07019" stroke-linecap="round" stroke-linejoin="round"/>
<path d="M68.5371 22.144C71.3834 25.7841 75.0212 29.0624 78.04 31.4093" stroke="white" stroke-width="1.07019" stroke-linecap="round" stroke-linejoin="round"/>
<path d="M88.729 12.4691C88.7396 13.5334 90.442 18.0729 91.5539 19.8646C91.5539 19.8646 86.7846 22.2292 81.6383 27.2743C81.6383 27.2743 78.929 30.1214 78.1641 31.5672C78.1641 31.5672 83.5755 36.4224 88.4959 36.7985C93.4164 37.1746 97.4082 31.6541 98.0219 27.8206C98.6357 23.9872 98.2354 22.8537 97.0258 20.6433C95.8161 18.433 90.3229 10.3794 90.3229 10.3794L88.729 12.4691Z" stroke="white" stroke-width="1.07019" stroke-linecap="round" stroke-linejoin="round"/>
<path d="M91.2748 12.1054C91.2748 12.1054 90.4138 8.2258 88.5211 5.19594C86.7422 2.34701 83.2395 1.02366 80.0713 2.14301C77.4225 3.08141 76.7803 5.08773 76.7803 5.08773C76.7803 5.08773 75.4213 -0.0265054 69.7092 0.000103474C68.7097 0.0056345 67.7219 0.214415 66.8062 0.613677C65.8904 1.01294 65.0659 1.59429 64.3832 2.32217C63.4243 3.30845 62.7748 4.55232 62.5145 5.90126C62.2541 7.25021 62.3941 8.6456 62.9174 9.91636C62.9174 9.91636 52.3187 6.86697 48.7982 18.5536C48.4424 19.7333 48.727 21.7343 49.0846 22.9121C51.2549 30.0575 65.0716 27.1696 69.8177 23.2669C75.0263 18.9705 77.0027 15.396 77.3531 12.705C76.9102 14.5179 85.344 20.2885 91.2748 12.1054Z" fill="white"/>
<path d="M88.3922 27.6025C88.3922 27.6025 88.1514 29.011 88.0801 30.1996" stroke="white" stroke-width="1.42692" stroke-linecap="round" stroke-linejoin="round"/>
<path d="M79.3418 25.6191L83.339 30.5755L84.5006 28.5905" stroke="white" stroke-width="1.42692" stroke-linecap="round" stroke-linejoin="round"/>
<path d="M78.1591 27.715C78.4111 27.4606 78.2959 26.9396 77.9018 26.5512C77.5077 26.1628 76.9838 26.0541 76.7318 26.3085C76.4797 26.5628 76.5949 27.0839 76.989 27.4723C77.3832 27.8607 77.907 27.9693 78.1591 27.715Z" fill="white"/>
<path d="M83.2255 23.8139C83.4775 23.5595 83.3623 23.0385 82.9682 22.6501C82.5741 22.2617 82.0502 22.153 81.7982 22.4074C81.5461 22.6617 81.6613 23.1828 82.0554 23.5712C82.4496 23.9596 82.9734 24.0682 83.2255 23.8139Z" fill="white"/>
<path d="M81.4171 17.7393C81.4171 18.2714 79.6382 19.4742 77.998 18.8036" stroke="white" stroke-width="1.42692" stroke-linecap="round" stroke-linejoin="round"/>
<path d="M73.734 22.967C73.734 22.967 72.133 23.9161 72.8659 25.2731" stroke="white" stroke-width="1.42692" stroke-linecap="round" stroke-linejoin="round"/>
<path d="M158.432 32.5393C158.432 32.5393 148.2 34.0507 144.836 41.212" stroke="white" stroke-width="1.07019" stroke-linecap="round" stroke-linejoin="round"/>
<path d="M151.628 53.3492C149.552 53.5834 145.199 64.4788 132.137 49.9788" stroke="white" stroke-width="1.07019" stroke-linecap="round" stroke-linejoin="round"/>
<path d="M91.6736 48.4656C91.6736 48.4656 89.0337 60.4804 92.515 65.8252" stroke="white" stroke-width="1.07019" stroke-linecap="round" stroke-linejoin="round"/>
<path d="M112.258 41.6182C112.258 41.6182 109.959 56.2832 114.544 62.4671" stroke="white" stroke-width="1.07019" stroke-linecap="round" stroke-linejoin="round"/>
<path d="M158.809 45.8596C149.845 45.8596 142.578 54.4224 142.578 64.9843V73.1799H175.04V64.9843C175.04 54.4224 167.773 45.8596 158.809 45.8596Z" fill="white"/>
<path fill-rule="evenodd" clip-rule="evenodd" d="M225.253 58.3606L225.152 72.3799L220.941 67.4183L217.207 71.8176V58.3606H225.253Z" fill="#AEAEAE"/>
<path d="M199.873 58.3696H227.747" stroke="white" stroke-width="1.07019" stroke-linecap="round" stroke-linejoin="round"/>
<path d="M193.216 45.9962C193.851 46.7838 197.268 51.0732 198.019 52.9411C198.839 55.0007 197.989 55.7883 196.622 55.0911C196.364 54.9636 196.118 54.8134 195.886 54.6423C196.13 55.7947 196.174 56.9804 196.016 58.1476C195.703 60.3633 194.034 60.1397 193.079 58.4048C192.901 60.1451 192.405 60.6559 191.762 60.6471C190.821 60.6347 189.727 60.381 189.774 59.008C188.777 60.1362 186.618 58.5946 186.572 57.0318C186.518 55.3324 186.593 50.9739 185.129 49.113L184.513 48.5223C184.513 48.5223 182.466 52.6555 180.288 53.2409C178.111 53.8263 176.955 52.4036 179.123 50.5357C180.511 49.3383 180.262 48.595 179.904 48.2154C179.436 47.7231 179.014 47.1886 178.645 46.6189L178.157 45.8596H158.808C167.772 45.8596 175.039 54.4649 175.039 65.0819V69.6941H127.571C127.112 69.6941 126.671 69.876 126.347 70.1997C126.022 70.5233 125.84 70.9624 125.84 71.4201V71.4503C125.84 71.9081 126.022 72.3471 126.347 72.6708C126.671 72.9945 127.112 73.1763 127.571 73.1763H173.061V136H183.16V73.3165H207.506V65.0819C207.5 55.2455 201.262 47.1351 193.216 45.9962Z" fill="#AEAEAE"/>
<path d="M195.839 54.6159C196.082 54.798 196.341 54.9572 196.614 55.0913C197.98 55.7885 198.831 55.0008 198.011 52.9413C197.191 50.8818 193.122 45.8722 193.122 45.8722L191.973 44.6517C188.237 41.37 178.567 39.9154 177.845 39.9473C173.791 40.1247 171.975 45.3329 171.975 45.3329H177.818L178.642 46.619C179.011 47.1888 179.433 47.7233 179.901 48.2156C180.257 48.5952 180.508 49.3385 179.12 50.5359C176.952 52.4038 178.108 53.8265 180.286 53.2411C182.463 52.6557 184.511 48.5225 184.511 48.5225L185.473 49.4449" stroke="white" stroke-width="1.07019" stroke-linecap="round" stroke-linejoin="round"/>
<path d="M193.371 49.2461C193.675 49.6097 196.668 53.4716 196.008 58.1477C195.718 60.2001 194.262 60.1593 193.293 58.7632" stroke="white" stroke-width="1.07019" stroke-linecap="round" stroke-linejoin="round"/>
<path d="M191.057 48.9058C192.287 50.7423 192.993 52.8782 193.099 55.0843C193.325 59.5564 192.695 60.6616 191.754 60.6474C190.813 60.6332 189.719 60.3813 189.765 59.0083" stroke="white" stroke-width="1.07019" stroke-linecap="round" stroke-linejoin="round"/>
<path d="M188.532 48.9056C189.26 49.7837 190.539 54.5165 190.235 57.6954C189.93 60.8743 186.62 58.9673 186.559 57.0302C186.502 55.1942 186.595 50.2502 184.732 48.7104" stroke="white" stroke-width="1.07019" stroke-linecap="round" stroke-linejoin="round"/>
<path d="M124.532 125.202C123.484 124.507 120.842 125.477 118.046 126.846C118.969 126.164 119.883 125.447 120.735 124.718C124.967 121.094 123.324 118.252 120.913 117.631C119.919 117.374 118.364 118.835 116.304 120.606C118.795 113.402 111.704 110.688 109.936 110.494C109.121 110.402 108.297 110.431 107.491 110.581C105.647 108.19 103.119 105.302 102.406 105.215C100.639 104.999 100.123 112.632 100.093 113.171L98.5169 113.741C98.0438 113.912 97.5905 114.133 97.1649 114.401C95 112.627 92.506 110.831 91.8709 110.888C90.3055 111.027 91.122 117.807 91.3977 119.804C91.2044 120.121 91.0401 120.455 90.9068 120.801C90.8356 120.978 90.7769 121.166 90.7289 121.347L79.6445 136H115.183V134.996C116.233 134.641 117.631 134.169 119.631 133.607C125.421 131.98 127.018 126.855 124.532 125.202Z" stroke="white" stroke-width="1.07019" stroke-linecap="round" stroke-linejoin="round"/>
<path d="M92.6963 111.731C92.6963 111.731 91.556 113.077 93.5982 118.401" stroke="white" stroke-width="1.07019" stroke-linecap="round" stroke-linejoin="round"/>
<path d="M102.604 105.863C102.604 105.863 101.417 110.709 103.138 112.671" stroke="white" stroke-width="1.07019" stroke-linecap="round" stroke-linejoin="round"/>
<path d="M103.626 118.324C103.996 118.127 104.043 117.495 103.73 116.911C103.417 116.328 102.864 116.015 102.494 116.212C102.124 116.41 102.078 117.042 102.39 117.625C102.703 118.209 103.256 118.522 103.626 118.324Z" fill="white"/>
<path d="M109.034 116.161C109.404 115.963 109.451 115.331 109.138 114.748C108.826 114.164 108.272 113.851 107.902 114.049C107.532 114.246 107.486 114.878 107.798 115.462C108.111 116.045 108.664 116.358 109.034 116.161Z" fill="white"/>
<path d="M108.156 117.663L107.622 118.892C107.579 118.981 107.505 119.052 107.415 119.092C107.324 119.132 107.223 119.139 107.127 119.112L105.895 118.757C105.599 118.672 105.59 118.314 105.88 118.172L107.645 117.299C107.951 117.143 108.278 117.379 108.156 117.663Z" fill="white"/>
<path d="M107.303 118.635C107.659 119.295 108.749 119.699 109.822 119.699" stroke="white" stroke-width="1.07019" stroke-linecap="round" stroke-linejoin="round"/>
<path d="M107.339 118.617C107.695 119.277 107.517 120.159 106.756 121.076" stroke="white" stroke-width="1.07019" stroke-linecap="round" stroke-linejoin="round"/>
<path d="M101.83 120.579C101.83 120.579 95.1675 118.477 91.334 124.319" stroke="white" stroke-width="1.07019" stroke-linecap="round" stroke-linejoin="round"/>
<path d="M102.268 121.413C102.268 121.413 95.3306 120.622 92.6836 127.089" stroke="white" stroke-width="1.07019" stroke-linecap="round" stroke-linejoin="round"/>
<path d="M116.561 119.701C116.103 121.841 112.717 131.478 100.338 130.492" stroke="white" stroke-width="1.07019" stroke-linecap="round" stroke-linejoin="round"/>
<path d="M1 136H271" stroke="white" stroke-width="1.07019" stroke-linecap="round" stroke-linejoin="round"/>
</svg>
