<svg width="307" height="129" viewBox="0 0 307 129" fill="none" xmlns="http://www.w3.org/2000/svg">
<path d="M59.2246 53.9113C56.3618 53.0748 53.0498 52.5644 49.1903 52.5071C49.1903 52.5071 47.7231 57.8534 49.516 64.5341" stroke="white" stroke-width="1.07664" stroke-linecap="round" stroke-linejoin="round"/>
<path d="M59.2773 65.374C58.5425 61.5762 58.5176 57.675 59.2039 53.8682" stroke="white" stroke-width="1.07664" stroke-linecap="round" stroke-linejoin="round"/>
<path d="M59.2031 53.8683C60.3679 47.3112 63.7228 39.9552 70.6974 32.0781C70.6974 32.0781 78.1497 36.0041 83.6983 44.3559" stroke="white" stroke-width="1.07664" stroke-linecap="round" stroke-linejoin="round"/>
<path d="M75.1895 59.4475C77.664 50.9722 83.7332 41.5798 96.9935 33.5898C96.9935 33.5898 101.961 38.1911 104.832 46.439" stroke="white" stroke-width="1.07664" stroke-linecap="round" stroke-linejoin="round"/>
<path d="M97.6318 63.5328C96.832 59.2343 94.5901 54.2963 90.0131 48.7637C90.0131 48.7637 58.9907 62.854 74.5466 81.868" stroke="white" stroke-width="1.07664" stroke-linecap="round" stroke-linejoin="round"/>
<path d="M70.1813 70.3567C64.9172 66.7531 57.9999 63.9931 49.5312 64.7382" stroke="white" stroke-width="1.07664" stroke-linecap="round" stroke-linejoin="round"/>
<path d="M49.5316 64.7383C46.9902 64.9716 44.4814 65.479 42.0488 66.2517C42.0488 66.2517 46.4988 76.5414 56.7513 82.8478" stroke="white" stroke-width="1.07664" stroke-linecap="round" stroke-linejoin="round"/>
<path d="M91.0457 81.8699H58.5203C58.0679 81.8666 57.6326 82.0432 57.3102 82.3609C56.9878 82.6786 56.8046 83.1114 56.8008 83.5643V89.7506C56.8046 90.2035 56.9878 90.6363 57.3102 90.954C57.6326 91.2717 58.0679 91.4483 58.5203 91.445H61.3831L68.5509 122.477" stroke="white" stroke-width="1.07664" stroke-linecap="round" stroke-linejoin="round"/>
<path d="M97.0059 128.409L99.7953 116.333" stroke="white" stroke-width="1.07664" stroke-linecap="round" stroke-linejoin="round"/>
<path d="M252.071 123.516L249.208 96.381C249.209 95.8775 249.081 95.3821 248.836 94.942C248.592 94.5018 248.239 94.1316 247.812 93.8663C247.384 93.6011 246.896 93.4497 246.393 93.4265C245.891 93.4033 245.391 93.5091 244.941 93.7339C241.278 95.5715 236.458 100.436 235.59 113.301" stroke="white" stroke-width="1.07664" stroke-linecap="round" stroke-linejoin="round"/>
<path d="M227.402 107.584H236.318" stroke="white" stroke-width="1.07664" stroke-linecap="round" stroke-linejoin="round"/>
<path d="M254.079 128.397C254.079 128.397 252.058 112.71 224.629 112.026" stroke="white" stroke-width="1.07664" stroke-linecap="round" stroke-linejoin="round"/>
<path d="M208.331 128.346L228.121 108.539C228.121 108.539 200.113 85.1869 193.945 80.1468C187.594 74.9527 178.035 63.8123 164.945 73.1402C159.829 76.785 150.573 84.4239 141.411 93.021L141.473 93.03L141.223 93.1966C138.95 95.3297 136.687 97.5202 134.495 99.7197C134.014 104.278 132.248 112.28 129.07 111.023C128.036 110.615 126.955 109.065 125.962 108.813C125.318 109.551 124.693 110.282 124.089 111.007C123.598 112.768 121.816 116.522 119.873 116.446C116.355 121.418 114.421 125.662 115.16 128.391" stroke="white" stroke-width="1.07664" stroke-linecap="round" stroke-linejoin="round"/>
<path d="M185.392 128.346L174.88 108.865C167.952 121.501 164.162 126.417 161.945 128.124" stroke="white" stroke-width="1.07664" stroke-linecap="round" stroke-linejoin="round"/>
<path d="M143.098 50.4724C137.608 49.2186 126.324 48.9142 121.378 51.4199L110.478 53.6104C106.652 52.2509 102.007 53.0121 98.4627 57.4182C91.1446 66.5132 84.3418 100.139 84.3418 100.139L97.9403 101.393L99.1928 98.885C99.1928 98.885 94.4744 128.488 101.839 128.488C102.091 128.488 107.923 128.441 115.162 128.38C114.423 125.651 116.355 121.408 119.873 116.436C119.788 116.434 119.703 116.425 119.619 116.407C117.701 115.997 115.615 113.844 115.117 111.071C113.553 110.317 114.5 110.903 113.171 110.325C111.539 109.778 110.044 108.886 108.789 107.708C107.946 109.499 107.366 111.702 107.815 113.618C107.848 113.757 107.824 113.902 107.749 114.023C107.674 114.144 107.554 114.23 107.416 114.263C107.376 114.274 107.334 114.279 107.293 114.279C107.172 114.279 107.054 114.238 106.959 114.163C106.864 114.087 106.798 113.982 106.77 113.864C106.219 111.525 106.949 108.906 107.991 106.857C107.614 106.403 107.276 105.918 106.981 105.406C104.457 108.526 103.793 112.857 103.784 112.913C103.765 113.041 103.701 113.159 103.602 113.244C103.503 113.328 103.377 113.374 103.247 113.373C103.221 113.375 103.195 113.375 103.169 113.373C103.099 113.363 103.032 113.339 102.971 113.303C102.91 113.267 102.857 113.219 102.815 113.163C102.773 113.106 102.742 113.042 102.725 112.973C102.708 112.905 102.704 112.834 102.714 112.764C102.75 112.517 103.482 107.715 106.443 104.364C104.593 100.18 105.548 95.4497 106.359 94.1996C107.806 91.9715 108.048 92.1685 108.048 92.1685C107.227 89.5338 105.314 89.8831 104.305 90.2556C104.241 90.275 104.174 90.2764 104.11 90.2597C104.046 90.2429 103.987 90.2087 103.942 90.1608C103.896 90.1129 103.864 90.0532 103.85 89.9883C103.836 89.9235 103.841 89.8561 103.863 89.7935C107.525 80.4692 117.769 87.1947 117.769 87.1947L119.841 86.3995C119.694 82.3122 120.127 77.3134 120.863 76.5629C122.561 74.8274 129.823 82.9069 129.823 82.9069C135.087 81.9021 140.473 80.917 145.252 80.1755C145.485 78.3576 145.657 76.5146 145.721 74.7593C148.473 76.296 151.228 77.7952 153.866 79.2083L157.038 78.9361L155.668 80.1522L155.847 80.2489C159.461 77.2489 162.623 74.7808 164.936 73.133C166.64 71.8857 168.527 70.9122 170.531 70.2476C162.288 63.0296 148.716 51.7512 143.098 50.4724Z" fill="white"/>
<path d="M129.225 111.066C129.175 111.05 129.123 111.034 129.072 111.012C129.123 111.034 129.175 111.046 129.225 111.066Z" fill="white"/>
<path d="M127.714 110.041C127.512 109.861 127.31 109.682 127.111 109.502C127.31 109.676 127.512 109.859 127.714 110.041Z" fill="white"/>
<path d="M131.019 110.584C130.993 110.607 130.968 110.631 130.941 110.652C130.977 110.631 130.993 110.607 131.019 110.584Z" fill="white"/>
<path d="M127.108 109.504C127.043 109.449 126.981 109.397 126.916 109.346C126.981 109.397 127.04 109.449 127.108 109.504Z" fill="white"/>
<path d="M143.19 91.3552C143.19 91.3176 143.206 91.2818 143.215 91.2441L141.256 92.9886C141.331 92.9976 141.404 93.0065 141.474 93.0191L141.412 93.0101C142.004 92.4537 142.597 91.9021 143.19 91.3552Z" fill="white"/>
<path d="M122.399 114.596C122.399 114.609 122.381 114.624 122.37 114.637C122.358 114.65 122.388 114.609 122.399 114.596Z" fill="white"/>
<path d="M124.19 110.581C124.167 110.702 124.133 110.844 124.09 111C124.695 110.276 125.319 109.545 125.963 108.806C125.324 108.639 124.714 109.013 124.19 110.581Z" fill="white"/>
<path d="M126.722 109.196C126.658 109.152 126.595 109.109 126.533 109.067C126.597 109.108 126.659 109.151 126.722 109.196Z" fill="white"/>
<path d="M123.603 112.355C123.603 112.367 123.603 112.376 123.59 112.387C123.577 112.398 123.599 112.367 123.603 112.355Z" fill="white"/>
<path d="M133.852 103.771C133.852 103.8 133.839 103.828 133.834 103.857C133.839 103.828 133.839 103.8 133.852 103.771Z" fill="white"/>
<path d="M133.905 103.524C133.905 103.547 133.896 103.572 133.891 103.597C133.896 103.567 133.9 103.542 133.905 103.524Z" fill="white"/>
<path d="M133.482 105.327C133.471 105.367 133.46 105.405 133.451 105.444C133.464 105.405 133.482 105.367 133.482 105.327Z" fill="white"/>
<path d="M133.679 104.546C133.67 104.582 133.663 104.618 133.654 104.654C133.661 104.618 133.67 104.582 133.679 104.546Z" fill="white"/>
<path d="M133.552 105.068C133.552 105.105 133.532 105.143 133.523 105.181C133.532 105.136 133.543 105.105 133.552 105.068Z" fill="white"/>
<path d="M134.45 100.135V100.156C134.45 100.156 134.448 100.143 134.45 100.135Z" fill="white"/>
<path d="M134.569 98.9172C134.55 99.1662 134.527 99.4312 134.496 99.7089C136.688 97.5094 138.951 95.319 141.224 93.1858L140.447 93.7052L134.569 98.9172Z" fill="white"/>
<path d="M131.871 109.517C131.85 109.551 131.828 109.583 131.809 109.617C131.827 109.583 131.848 109.551 131.871 109.517Z" fill="white"/>
<path d="M131.537 110.007C131.508 110.047 131.478 110.084 131.449 110.122C131.478 110.084 131.514 110.047 131.537 110.007Z" fill="white"/>
<path d="M131.423 110.151C131.386 110.197 131.346 110.244 131.307 110.289C131.346 110.249 131.386 110.203 131.423 110.151Z" fill="white"/>
<path d="M133.125 106.599C133.111 106.646 133.094 106.692 133.08 106.739C133.089 106.692 133.105 106.646 133.125 106.599Z" fill="white"/>
<path d="M133.27 106.097L133.236 106.218C133.247 106.176 133.26 106.137 133.27 106.097Z" fill="white"/>
<path d="M133.345 105.852C133.334 105.892 133.323 105.931 133.311 105.97C133.323 105.922 133.334 105.883 133.345 105.852Z" fill="white"/>
<path d="M132.837 107.425C132.821 107.471 132.805 107.516 132.787 107.561C132.805 107.516 132.821 107.464 132.837 107.425Z" fill="white"/>
<path d="M192.002 37.9526L191.181 37.9992C190.714 38.0245 190.265 38.1803 189.883 38.4488C189.5 38.7173 189.201 39.0878 189.019 39.518L188.289 40.7503" stroke="white" stroke-width="1.07664" stroke-linecap="round" stroke-linejoin="round"/>
<path d="M202.06 38.3055C202.597 38.2446 203.021 38.3055 203.255 38.5813C204.15 39.6166 203.862 40.8542 201.18 41.9235" stroke="white" stroke-width="1.07664" stroke-linecap="round" stroke-linejoin="round"/>
<path d="M200.986 42.013C201.645 41.8895 202.199 41.9235 202.475 42.2459C203.425 43.3545 203.035 44.6943 199.791 45.8119" stroke="white" stroke-width="1.07664" stroke-linecap="round" stroke-linejoin="round"/>
<path d="M199.969 44.7229C200.597 44.8286 201.078 45.0417 201.221 45.4214C201.677 46.5892 201.146 47.5922 198.816 47.8429" stroke="white" stroke-width="1.07664" stroke-linecap="round" stroke-linejoin="round"/>
<path d="M203.212 34.9258L195.391 31.8631C195.077 31.7398 194.728 31.746 194.419 31.8803C194.11 32.0146 193.867 32.266 193.743 32.5795L190.612 40.5748C190.966 40.5682 191.32 40.6049 191.666 40.6841L194.23 34.1377C194.354 33.8243 194.597 33.5728 194.906 33.4385C195.215 33.3042 195.564 33.298 195.877 33.4213L201.202 35.5097C201.516 35.6342 201.767 35.8779 201.901 36.1874C202.035 36.4969 202.041 36.847 201.918 37.161L196.334 51.4215C196.273 51.5771 196.182 51.719 196.066 51.8392C195.95 51.9594 195.811 52.0555 195.658 52.1221C195.505 52.1886 195.341 52.2243 195.174 52.227C195.007 52.2298 194.841 52.1995 194.686 52.138L189.359 50.0496C189.046 49.9251 188.795 49.6814 188.661 49.3719C188.526 49.0624 188.52 48.7123 188.643 48.3982L190.273 44.234C189.411 44.9444 188.702 45.8231 188.189 46.8167V46.7773L187.115 49.532C186.992 49.8458 186.998 50.1956 187.133 50.5048C187.267 50.8141 187.518 51.0574 187.831 51.1815L195.652 54.2496C195.966 54.3735 196.316 54.3675 196.625 54.2332C196.934 54.0989 197.178 53.8471 197.302 53.5332L203.94 36.5807C204.001 36.4243 204.031 36.2572 204.027 36.0892C204.024 35.9212 203.987 35.7555 203.92 35.6017C203.852 35.4479 203.755 35.309 203.633 35.193C203.512 35.077 203.368 34.9862 203.212 34.9258Z" fill="#AEAEAE"/>
<path d="M186.693 73.9335C190.165 67.0486 192.845 58.7793 193.722 53.8735" stroke="white" stroke-width="1.07664" stroke-linecap="round" stroke-linejoin="round"/>
<path d="M188.19 46.822C188.707 45.8188 189.424 44.933 190.298 44.2196C195.44 43.8614 194.088 41.8715 192.583 41.0351C191.026 40.17 188.811 40.1664 187.36 41.5724L186.725 42.2888C185.293 43.7736 185.399 49.0644 185.399 49.0644C182.706 53.9254 178.242 62.5136 172.096 69.531" stroke="white" stroke-width="1.07664" stroke-linecap="round" stroke-linejoin="round"/>
<path d="M128.563 43.344L127.577 50.4509L131.921 50.1823C131.921 50.1823 133.863 60.4003 122.975 61.9424C115.386 63.0171 115 51.6563 115 51.6563L115.247 33.511" stroke="white" stroke-width="1.07664" stroke-linecap="round" stroke-linejoin="round"/>
<path d="M115.265 31.8291C115.265 31.8291 108.297 33.8387 107.734 27.1168C107.304 22.0194 112.207 21.5305 114.597 21.5931" stroke="white" stroke-width="1.07664" stroke-linecap="round" stroke-linejoin="round"/>
<path d="M141.344 24.4354C141.555 27.5071 140.958 41.7336 131.439 43.1897C121.92 44.6459 115.196 36.0093 113.936 26.891C112.676 17.7727 116.441 9.9654 122.458 8.9015C128.476 7.83761 139.809 2.19215 141.344 24.4354Z" stroke="white" stroke-width="1.07664" stroke-linecap="round" stroke-linejoin="round"/>
<path d="M132.309 30.0092L135.182 29.8964L132.91 18.3547" stroke="white" stroke-width="1.07664" stroke-linecap="round" stroke-linejoin="round"/>
<path d="M126.172 20.3411C126.172 20.3411 128.102 18.0521 129.994 19.4742" stroke="white" stroke-width="1.07664" stroke-linecap="round" stroke-linejoin="round"/>
<path d="M135.807 19.7751C135.807 19.7751 138.025 17.778 139.702 19.4563" stroke="white" stroke-width="1.07664" stroke-linecap="round" stroke-linejoin="round"/>
<path d="M130.941 25.7056C130.953 24.8708 130.536 24.1879 130.009 24.1803C129.482 24.1726 129.046 24.8432 129.034 25.6779C129.022 26.5127 129.439 27.1956 129.965 27.2033C130.492 27.2109 130.929 26.5404 130.941 25.7056Z" fill="white"/>
<path d="M140.095 26.1683C140.107 25.3335 139.69 24.6506 139.163 24.6429C138.637 24.6353 138.2 25.3058 138.188 26.1406C138.176 26.9754 138.593 27.6583 139.12 27.6659C139.646 27.6736 140.083 27.003 140.095 26.1683Z" fill="white"/>
<path d="M132.537 24.0763C132.76 19.5613 130.235 15.7673 126.898 15.6021C123.561 15.437 120.676 18.9633 120.453 23.4784C120.23 27.9934 122.754 31.7874 126.091 31.9525C129.428 32.1177 132.314 28.5914 132.537 24.0763Z" stroke="#AEAEAE" stroke-width="0.807481" stroke-linecap="round" stroke-linejoin="round"/>
<path d="M148.5 24.5153C148.723 20.0002 146.198 16.2062 142.861 16.0411C139.524 15.876 136.638 19.4023 136.415 23.9173C136.192 28.4324 138.717 32.2264 142.054 32.3915C145.391 32.5566 148.277 29.0303 148.5 24.5153Z" stroke="#AEAEAE" stroke-width="0.807481" stroke-linecap="round" stroke-linejoin="round"/>
<path d="M136.513 21.8978L132.732 21.783" stroke="#AEAEAE" stroke-width="0.807481" stroke-linecap="round" stroke-linejoin="round"/>
<path d="M120.819 20.676L111.998 21.6325" stroke="#AEAEAE" stroke-width="0.807481" stroke-linecap="round" stroke-linejoin="round"/>
<path d="M129.492 34.6106C129.492 34.6106 131.221 36.0184 132.958 35.4972Z" fill="white"/>
<path d="M129.492 34.6106C129.492 34.6106 131.221 36.0184 132.958 35.4972" stroke="white" stroke-width="1.07664" stroke-linecap="round" stroke-linejoin="round"/>
<path d="M147.199 10.1267C143.537 -5.07411 123.987 -0.394048 120.938 6.30276C108.109 3.3672 103.026 12.7363 100.585 18.7847C98.2235 24.6379 99.5636 30.2082 102.448 36.493C104.107 40.1074 111.287 37.6017 115.164 37.1521L115.182 31.8506C114.404 32.0494 108.261 33.4106 107.733 27.1168C107.537 24.8188 108.431 23.463 109.684 22.6624C110.145 23.309 111.02 23.5848 112.482 23.2749C117.537 22.2003 120.368 17.3322 121.701 14.1763L144.782 13.3327C145.166 13.3176 145.541 13.2174 145.882 13.0393C146.222 12.8612 146.518 12.6097 146.75 12.3029C146.981 11.9961 147.141 11.6418 147.219 11.2654C147.297 10.8891 147.29 10.5002 147.199 10.1267Z" fill="white"/>
<path d="M119.308 47.1903C120.411 41.6178 117.379 36.3214 112.535 35.3605C107.692 34.3996 102.87 38.1379 101.767 43.7104C100.664 49.2829 103.696 54.5793 108.54 55.5402C113.384 56.5012 118.205 52.7628 119.308 47.1903Z" fill="white"/>
<path d="M126.749 58.694C128.39 54.9179 127.059 50.6978 123.776 49.2682C120.493 47.8386 116.501 49.7408 114.86 53.517C113.219 57.2931 114.55 61.5132 117.833 62.9428C121.116 64.3724 125.108 62.4702 126.749 58.694Z" fill="white"/>
<path d="M131.215 68.7038C133.563 65.8777 133.475 61.9289 131.019 59.884C128.563 57.839 124.668 58.4723 122.32 61.2984C119.972 64.1245 120.06 68.0733 122.516 70.1182C124.972 72.1632 128.867 71.5299 131.215 68.7038Z" fill="white"/>
<path d="M129.129 77.9222C131.17 79.6004 134.404 79.0703 136.349 76.7383C138.294 74.4063 138.217 71.152 136.17 69.4737C134.123 67.7955 130.822 68.1645 128.877 70.4964C126.932 72.8284 127.087 76.2422 129.129 77.9222Z" fill="white"/>
<path d="M115.828 54.101L119.432 48.0723" stroke="#AEAEAE" stroke-width="1.43552" stroke-linecap="round" stroke-linejoin="round"/>
<path d="M122.582 62.2665L127.197 58.5339" stroke="#AEAEAE" stroke-width="1.43552" stroke-linecap="round" stroke-linejoin="round"/>
<path d="M128.707 70.5055L130.353 69.6672" stroke="#AEAEAE" stroke-width="1.43552" stroke-linecap="round" stroke-linejoin="round"/>
<path d="M132.992 78.1192L134.744 77.5264" stroke="#AEAEAE" stroke-width="1.43552" stroke-linecap="round" stroke-linejoin="round"/>
<path d="M72.456 119.973C72.456 119.973 64.2701 124.361 62.0013 125.543C59.7325 126.725 59.8148 128.221 59.8148 128.221" stroke="white" stroke-width="1.07664" stroke-linecap="round" stroke-linejoin="round"/>
<path d="M84.9775 99.7053L79.1284 120.75L74.5138 119.855C73.816 119.768 73.1077 119.822 72.4314 120.015C71.755 120.208 71.1245 120.535 70.5774 120.978L62.1678 127.164C62.0693 127.237 61.9963 127.339 61.9591 127.456C61.9219 127.573 61.9225 127.699 61.9607 127.816C61.999 127.932 62.0729 128.034 62.1721 128.106C62.2712 128.178 62.3906 128.217 62.5132 128.217C67.8023 128.203 80.7387 128.171 82.9664 128.217C86.0081 128.284 87.7223 127.066 90.2773 120.573C91.6229 117.154 94.6754 107.971 97.5615 100.703L84.9775 99.7053Z" stroke="white" stroke-width="1.07664" stroke-linecap="round" stroke-linejoin="round"/>
<path d="M64.6992 128.228C64.6992 128.228 71.1406 124.718 72.1032 124.288C73.0659 123.858 76.4225 124.338 76.4225 124.338" stroke="white" stroke-width="1.07664" stroke-linecap="round" stroke-linejoin="round"/>
<path d="M71.0343 127.911C71.0343 127.911 70.5155 125.685 72.5874 125.361C74.6594 125.036 77.4525 124.569 79.3652 122.898" stroke="white" stroke-width="1.07664" stroke-linecap="round" stroke-linejoin="round"/>
<path d="M120.688 78.0083C120.688 78.0083 127.159 81.1301 126.34 84.8287" stroke="white" stroke-width="1.07664" stroke-linecap="round" stroke-linejoin="round"/>
<path d="M61.2148 91.5415H103.621" stroke="white" stroke-width="1.07664" stroke-linecap="round" stroke-linejoin="round"/>
<path d="M115.067 99.0462L116.767 99.5836C116.888 99.6183 117.017 99.6044 117.128 99.5449C117.239 99.4853 117.322 99.3848 117.359 99.2647L117.866 97.6761C117.896 97.5929 117.901 97.5022 117.879 97.4162C117.858 97.3302 117.81 97.2529 117.743 97.1946C117.676 97.1362 117.593 97.0997 117.505 97.0897C117.417 97.0797 117.328 97.0968 117.25 97.1387L115.051 98.2009C114.968 98.2368 114.897 98.2966 114.848 98.3729C114.799 98.4491 114.774 98.5383 114.775 98.629C114.777 98.7196 114.806 98.8077 114.858 98.8821C114.91 98.9564 114.983 99.0135 115.067 99.0462Z" fill="white"/>
<path d="M118.987 99.7626C119.121 102.141 117.614 100.363 116.976 99.2898C117.333 100.404 117.409 102.396 116.133 101.24" stroke="white" stroke-width="1.07664" stroke-linecap="round" stroke-linejoin="round"/>
<path d="M130.985 110.572C130.826 110.169 129.504 105.154 130.073 102.32" stroke="white" stroke-width="1.07664" stroke-linecap="round" stroke-linejoin="round"/>
<path d="M126.69 103.479C126.631 103.581 127.551 108.716 129.483 111.071" stroke="white" stroke-width="1.07664" stroke-linecap="round" stroke-linejoin="round"/>
<path d="M141.532 93.0282C138.215 92.4676 127.605 95.0897 125.182 100.506C122.759 105.922 125.338 109.513 129.109 111.009" stroke="white" stroke-width="1.07664" stroke-linecap="round" stroke-linejoin="round"/>
<path d="M120.848 108.818C120.848 108.818 119.837 114.106 120.458 116.341" stroke="white" stroke-width="1.07664" stroke-linecap="round" stroke-linejoin="round"/>
<path d="M117.556 108.718C117.556 108.718 117.411 114.555 119.073 116.291" stroke="white" stroke-width="1.07664" stroke-linecap="round" stroke-linejoin="round"/>
<path d="M124.158 105.51C122.424 104.656 116.732 103.622 115.417 107.545C115.156 108.328 114.617 110.332 114.619 111.072" stroke="white" stroke-width="1.07664" stroke-linecap="round" stroke-linejoin="round"/>
<path d="M121.179 93.2324C121.179 93.2324 121.058 95.1614 119.15 94.2838" stroke="white" stroke-width="1.07664" stroke-linecap="round" stroke-linejoin="round"/>
<path d="M113.953 96.2432C113.953 96.2432 113.831 98.1721 111.924 97.2945" stroke="white" stroke-width="1.07664" stroke-linecap="round" stroke-linejoin="round"/>
<path d="M106.383 89.4586C106.383 89.4586 109.364 86.3368 115.281 88.7422" stroke="white" stroke-width="1.07664" stroke-linecap="round" stroke-linejoin="round"/>
<path d="M182.317 20.6992C182.302 20.4282 182.183 20.1734 181.986 19.9871C181.789 19.8008 181.528 19.697 181.256 19.697C180.985 19.697 180.724 19.8008 180.527 19.9871C180.33 20.1734 180.211 20.4282 180.195 20.6992V22.1715C180.217 22.4381 180.338 22.6867 180.535 22.868C180.732 23.0492 180.989 23.1499 181.256 23.1499C181.524 23.1499 181.781 23.0492 181.978 22.868C182.174 22.6867 182.295 22.4381 182.317 22.1715V20.6974V20.6992Z" fill="white"/>
<path d="M186.979 16.2754H176.186C175.82 16.282 175.471 16.434 175.216 16.6979C174.962 16.9619 174.822 17.3163 174.828 17.6832V25.8307C174.822 26.1958 174.96 26.5486 175.212 26.8123C175.465 27.0759 175.811 27.2291 176.176 27.2385L183.658 27.3532L188.341 32.2087V17.6832C188.344 17.5011 188.312 17.3202 188.245 17.1509C188.178 16.9815 188.079 16.827 187.952 16.6962C187.826 16.5654 187.675 16.4609 187.508 16.3887C187.341 16.3164 187.161 16.278 186.979 16.2754ZM183.349 22.1358C183.35 22.1477 183.35 22.1597 183.349 22.1716C183.349 23.2462 182.408 24.1274 181.25 24.1274C180.092 24.1274 179.151 23.2498 179.151 22.1716V20.6993C179.151 19.6247 180.092 18.7417 181.25 18.7417C182.408 18.7417 183.349 19.6193 183.349 20.6993C183.35 20.7113 183.35 20.7232 183.349 20.7352V22.134V22.1358Z" fill="white"/>
<path d="M306.464 128.463H0.537109" stroke="white" stroke-width="1.07664" stroke-linecap="round" stroke-linejoin="round"/>
</svg>
